ISO-10303-21;
HEADER;
FILE_DESCRIPTION(('FreeCAD Model'),'2;1');
FILE_NAME('Open CASCADE Shape Model','2026-09-26T21:27:09',(''),(''),
  'Open CASCADE STEP processor 7.8','FreeCAD','Unknown');
FILE_SCHEMA(('AUTOMOTIVE_DESIGN { 1 0 10303 214 1 1 1 1 }'));
ENDSEC;
DATA;
#1 = APPLICATION_PROTOCOL_DEFINITION('international standard',
  'automotive_design',2000,#2);
#2 = APPLICATION_CONTEXT(
  'core data for automotive mechanical design processes');
#3 = SHAPE_DEFINITION_REPRESENTATION(#4,#10);
#4 = PRODUCT_DEFINITION_SHAPE('','',#5);
#5 = PRODUCT_DEFINITION('design','',#6,#9);
#6 = PRODUCT_DEFINITION_FORMATION('','',#7);
#7 = PRODUCT('Fillet004','Fillet004','',(#8));
#8 = PRODUCT_CONTEXT('',#2,'mechanical');
#9 = PRODUCT_DEFINITION_CONTEXT('part definition',#2,'design');
#10 = ADVANCED_BREP_SHAPE_REPRESENTATION('',(#11,#15),#720);
#11 = AXIS2_PLACEMENT_3D('',#12,#13,#14);
#12 = CARTESIAN_POINT('',(0.,0.,0.));
#13 = DIRECTION('',(0.,0.,1.));
#14 = DIRECTION('',(1.,0.,-0.));
#15 = MANIFOLD_SOLID_BREP('',#16);
#16 = CLOSED_SHELL('',(#17,#90,#130,#163,#188,#221,#271,#305,#321,#350,
    #383,#408,#436,#453,#477,#494,#534,#559,#577,#586,#603,#627,#645,
    #663,#687,#709));
#17 = ADVANCED_FACE('',(#18),#85,.F.);
#18 = FACE_BOUND('',#19,.F.);
#19 = EDGE_LOOP('',(#20,#30,#39,#47,#55,#63,#71,#79));
#20 = ORIENTED_EDGE('',*,*,#21,.F.);
#21 = EDGE_CURVE('',#22,#24,#26,.T.);
#22 = VERTEX_POINT('',#23);
#23 = CARTESIAN_POINT('',(0.,-25.5,56.));
#24 = VERTEX_POINT('',#25);
#25 = CARTESIAN_POINT('',(0.,-25.5,74.));
#26 = LINE('',#27,#28);
#27 = CARTESIAN_POINT('',(0.,-25.5,55.));
#28 = VECTOR('',#29,1.);
#29 = DIRECTION('',(0.,0.,1.));
#30 = ORIENTED_EDGE('',*,*,#31,.T.);
#31 = EDGE_CURVE('',#22,#32,#34,.T.);
#32 = VERTEX_POINT('',#33);
#33 = CARTESIAN_POINT('',(0.,-24.5,55.));
#34 = CIRCLE('',#35,1.);
#35 = AXIS2_PLACEMENT_3D('',#36,#37,#38);
#36 = CARTESIAN_POINT('',(0.,-24.5,56.));
#37 = DIRECTION('',(1.,0.,-0.));
#38 = DIRECTION('',(0.,0.,1.));
#39 = ORIENTED_EDGE('',*,*,#40,.F.);
#40 = EDGE_CURVE('',#41,#32,#43,.T.);
#41 = VERTEX_POINT('',#42);
#42 = CARTESIAN_POINT('',(-3.79E-13,-12.,55.));
#43 = LINE('',#44,#45);
#44 = CARTESIAN_POINT('',(0.,25.5,55.));
#45 = VECTOR('',#46,1.);
#46 = DIRECTION('',(0.,-1.,0.));
#47 = ORIENTED_EDGE('',*,*,#48,.F.);
#48 = EDGE_CURVE('',#49,#41,#51,.T.);
#49 = VERTEX_POINT('',#50);
#50 = CARTESIAN_POINT('',(-3.82E-13,12.,55.));
#51 = LINE('',#52,#53);
#52 = CARTESIAN_POINT('',(0.,25.5,55.));
#53 = VECTOR('',#54,1.);
#54 = DIRECTION('',(0.,-1.,0.));
#55 = ORIENTED_EDGE('',*,*,#56,.T.);
#56 = EDGE_CURVE('',#49,#57,#59,.T.);
#57 = VERTEX_POINT('',#58);
#58 = CARTESIAN_POINT('',(0.,12.,56.));
#59 = LINE('',#60,#61);
#60 = CARTESIAN_POINT('',(0.,12.,0.));
#61 = VECTOR('',#62,1.);
#62 = DIRECTION('',(0.,0.,1.));
#63 = ORIENTED_EDGE('',*,*,#64,.T.);
#64 = EDGE_CURVE('',#57,#65,#67,.T.);
#65 = VERTEX_POINT('',#66);
#66 = CARTESIAN_POINT('',(0.,24.5,56.));
#67 = LINE('',#68,#69);
#68 = CARTESIAN_POINT('',(-2.2E-16,12.,56.));
#69 = VECTOR('',#70,1.);
#70 = DIRECTION('',(0.,1.,0.));
#71 = ORIENTED_EDGE('',*,*,#72,.T.);
#72 = EDGE_CURVE('',#65,#73,#75,.T.);
#73 = VERTEX_POINT('',#74);
#74 = CARTESIAN_POINT('',(0.,24.5,74.));
#75 = LINE('',#76,#77);
#76 = CARTESIAN_POINT('',(-2.2E-16,24.5,56.));
#77 = VECTOR('',#78,1.);
#78 = DIRECTION('',(0.,0.,1.));
#79 = ORIENTED_EDGE('',*,*,#80,.T.);
#80 = EDGE_CURVE('',#73,#24,#81,.T.);
#81 = LINE('',#82,#83);
#82 = CARTESIAN_POINT('',(-2.2E-16,24.5,74.));
#83 = VECTOR('',#84,1.);
#84 = DIRECTION('',(0.,-1.,0.));
#85 = PLANE('',#86);
#86 = AXIS2_PLACEMENT_3D('',#87,#88,#89);
#87 = CARTESIAN_POINT('',(0.,25.5,55.));
#88 = DIRECTION('',(1.,0.,0.));
#89 = DIRECTION('',(0.,-1.,0.));
#90 = ADVANCED_FACE('',(#91),#125,.F.);
#91 = FACE_BOUND('',#92,.F.);
#92 = EDGE_LOOP('',(#93,#103,#112,#118,#119));
#93 = ORIENTED_EDGE('',*,*,#94,.F.);
#94 = EDGE_CURVE('',#95,#97,#99,.T.);
#95 = VERTEX_POINT('',#96);
#96 = CARTESIAN_POINT('',(16.5,-25.5,56.9));
#97 = VERTEX_POINT('',#98);
#98 = CARTESIAN_POINT('',(16.5,-25.5,74.));
#99 = LINE('',#100,#101);
#100 = CARTESIAN_POINT('',(16.5,-25.5,56.9));
#101 = VECTOR('',#102,1.);
#102 = DIRECTION('',(0.,0.,1.));
#103 = ORIENTED_EDGE('',*,*,#104,.F.);
#104 = EDGE_CURVE('',#105,#95,#107,.T.);
#105 = VERTEX_POINT('',#106);
#106 = CARTESIAN_POINT('',(15.6,-25.5,56.));
#107 = CIRCLE('',#108,0.9);
#108 = AXIS2_PLACEMENT_3D('',#109,#110,#111);
#109 = CARTESIAN_POINT('',(15.6,-25.5,56.9));
#110 = DIRECTION('',(0.,-1.,0.));
#111 = DIRECTION('',(0.,0.,-1.));
#112 = ORIENTED_EDGE('',*,*,#113,.F.);
#113 = EDGE_CURVE('',#22,#105,#114,.T.);
#114 = LINE('',#115,#116);
#115 = CARTESIAN_POINT('',(0.,-25.5,56.));
#116 = VECTOR('',#117,1.);
#117 = DIRECTION('',(1.,0.,0.));
#118 = ORIENTED_EDGE('',*,*,#21,.T.);
#119 = ORIENTED_EDGE('',*,*,#120,.T.);
#120 = EDGE_CURVE('',#24,#97,#121,.T.);
#121 = LINE('',#122,#123);
#122 = CARTESIAN_POINT('',(0.,-25.5,74.));
#123 = VECTOR('',#124,1.);
#124 = DIRECTION('',(1.,0.,0.));
#125 = PLANE('',#126);
#126 = AXIS2_PLACEMENT_3D('',#127,#128,#129);
#127 = CARTESIAN_POINT('',(0.,-25.5,55.));
#128 = DIRECTION('',(0.,1.,0.));
#129 = DIRECTION('',(1.,0.,0.));
#130 = ADVANCED_FACE('',(#131),#158,.T.);
#131 = FACE_BOUND('',#132,.F.);
#132 = EDGE_LOOP('',(#133,#142,#150,#157));
#133 = ORIENTED_EDGE('',*,*,#134,.T.);
#134 = EDGE_CURVE('',#73,#135,#137,.T.);
#135 = VERTEX_POINT('',#136);
#136 = CARTESIAN_POINT('',(1.,24.5,75.));
#137 = CIRCLE('',#138,1.);
#138 = AXIS2_PLACEMENT_3D('',#139,#140,#141);
#139 = CARTESIAN_POINT('',(1.,24.5,74.));
#140 = DIRECTION('',(-2.7E-16,1.,0.));
#141 = DIRECTION('',(-1.,-2.7E-16,0.));
#142 = ORIENTED_EDGE('',*,*,#143,.T.);
#143 = EDGE_CURVE('',#135,#144,#146,.T.);
#144 = VERTEX_POINT('',#145);
#145 = CARTESIAN_POINT('',(1.,-24.5,75.));
#146 = LINE('',#147,#148);
#147 = CARTESIAN_POINT('',(1.,24.5,75.));
#148 = VECTOR('',#149,1.);
#149 = DIRECTION('',(0.,-1.,0.));
#150 = ORIENTED_EDGE('',*,*,#151,.F.);
#151 = EDGE_CURVE('',#24,#144,#152,.T.);
#152 = ELLIPSE('',#153,1.414213562373,1.);
#153 = AXIS2_PLACEMENT_3D('',#154,#155,#156);
#154 = CARTESIAN_POINT('',(1.,-24.5,74.));
#155 = DIRECTION('',(-0.707106781187,0.707106781187,0.));
#156 = DIRECTION('',(0.707106781187,0.707106781187,0.));
#157 = ORIENTED_EDGE('',*,*,#80,.F.);
#158 = CYLINDRICAL_SURFACE('',#159,1.);
#159 = AXIS2_PLACEMENT_3D('',#160,#161,#162);
#160 = CARTESIAN_POINT('',(1.,24.5,74.));
#161 = DIRECTION('',(0.,-1.,0.));
#162 = DIRECTION('',(-1.,0.,0.));
#163 = ADVANCED_FACE('',(#164),#183,.T.);
#164 = FACE_BOUND('',#165,.T.);
#165 = EDGE_LOOP('',(#166,#167,#175,#182));
#166 = ORIENTED_EDGE('',*,*,#31,.T.);
#167 = ORIENTED_EDGE('',*,*,#168,.T.);
#168 = EDGE_CURVE('',#32,#169,#171,.T.);
#169 = VERTEX_POINT('',#170);
#170 = CARTESIAN_POINT('',(15.6,-24.5,55.));
#171 = LINE('',#172,#173);
#172 = CARTESIAN_POINT('',(0.,-24.5,55.));
#173 = VECTOR('',#174,1.);
#174 = DIRECTION('',(1.,0.,0.));
#175 = ORIENTED_EDGE('',*,*,#176,.F.);
#176 = EDGE_CURVE('',#105,#169,#177,.T.);
#177 = CIRCLE('',#178,1.);
#178 = AXIS2_PLACEMENT_3D('',#179,#180,#181);
#179 = CARTESIAN_POINT('',(15.6,-24.5,56.));
#180 = DIRECTION('',(1.,0.,0.));
#181 = DIRECTION('',(0.,-1.,0.));
#182 = ORIENTED_EDGE('',*,*,#113,.F.);
#183 = CYLINDRICAL_SURFACE('',#184,1.);
#184 = AXIS2_PLACEMENT_3D('',#185,#186,#187);
#185 = CARTESIAN_POINT('',(0.,-24.5,56.));
#186 = DIRECTION('',(1.,0.,0.));
#187 = DIRECTION('',(0.,-1.,0.));
#188 = ADVANCED_FACE('',(#189),#216,.T.);
#189 = FACE_BOUND('',#190,.F.);
#190 = EDGE_LOOP('',(#191,#192,#201,#209));
#191 = ORIENTED_EDGE('',*,*,#72,.F.);
#192 = ORIENTED_EDGE('',*,*,#193,.T.);
#193 = EDGE_CURVE('',#65,#194,#196,.T.);
#194 = VERTEX_POINT('',#195);
#195 = CARTESIAN_POINT('',(1.,25.5,56.));
#196 = CIRCLE('',#197,1.);
#197 = AXIS2_PLACEMENT_3D('',#198,#199,#200);
#198 = CARTESIAN_POINT('',(1.,24.5,56.));
#199 = DIRECTION('',(0.,-6.E-17,-1.));
#200 = DIRECTION('',(0.,1.,-6.E-17));
#201 = ORIENTED_EDGE('',*,*,#202,.T.);
#202 = EDGE_CURVE('',#194,#203,#205,.T.);
#203 = VERTEX_POINT('',#204);
#204 = CARTESIAN_POINT('',(1.,25.5,74.));
#205 = LINE('',#206,#207);
#206 = CARTESIAN_POINT('',(1.,25.5,56.));
#207 = VECTOR('',#208,1.);
#208 = DIRECTION('',(0.,0.,1.));
#209 = ORIENTED_EDGE('',*,*,#210,.T.);
#210 = EDGE_CURVE('',#203,#73,#211,.T.);
#211 = CIRCLE('',#212,1.);
#212 = AXIS2_PLACEMENT_3D('',#213,#214,#215);
#213 = CARTESIAN_POINT('',(1.,24.5,74.));
#214 = DIRECTION('',(0.,0.,1.));
#215 = DIRECTION('',(-3.3E-16,1.,0.));
#216 = CYLINDRICAL_SURFACE('',#217,1.);
#217 = AXIS2_PLACEMENT_3D('',#218,#219,#220);
#218 = CARTESIAN_POINT('',(1.,24.5,56.));
#219 = DIRECTION('',(0.,0.,1.));
#220 = DIRECTION('',(-1.,0.,0.));
#221 = ADVANCED_FACE('',(#222),#266,.F.);
#222 = FACE_BOUND('',#223,.F.);
#223 = EDGE_LOOP('',(#224,#232,#240,#248,#257,#264,#265));
#224 = ORIENTED_EDGE('',*,*,#225,.T.);
#225 = EDGE_CURVE('',#169,#226,#228,.T.);
#226 = VERTEX_POINT('',#227);
#227 = CARTESIAN_POINT('',(15.6,24.5,55.));
#228 = LINE('',#229,#230);
#229 = CARTESIAN_POINT('',(15.6,-25.5,55.));
#230 = VECTOR('',#231,1.);
#231 = DIRECTION('',(0.,1.,0.));
#232 = ORIENTED_EDGE('',*,*,#233,.T.);
#233 = EDGE_CURVE('',#226,#234,#236,.T.);
#234 = VERTEX_POINT('',#235);
#235 = CARTESIAN_POINT('',(1.,24.5,55.));
#236 = LINE('',#237,#238);
#237 = CARTESIAN_POINT('',(15.6,24.5,55.));
#238 = VECTOR('',#239,1.);
#239 = DIRECTION('',(-1.,0.,0.));
#240 = ORIENTED_EDGE('',*,*,#241,.F.);
#241 = EDGE_CURVE('',#242,#234,#244,.T.);
#242 = VERTEX_POINT('',#243);
#243 = CARTESIAN_POINT('',(1.,11.958260743101,55.));
#244 = LINE('',#245,#246);
#245 = CARTESIAN_POINT('',(1.,12.,55.));
#246 = VECTOR('',#247,1.);
#247 = DIRECTION('',(0.,1.,0.));
#248 = ORIENTED_EDGE('',*,*,#249,.F.);
#249 = EDGE_CURVE('',#250,#242,#252,.T.);
#250 = VERTEX_POINT('',#251);
#251 = CARTESIAN_POINT('',(12.,0.,55.));
#252 = CIRCLE('',#253,12.);
#253 = AXIS2_PLACEMENT_3D('',#254,#255,#256);
#254 = CARTESIAN_POINT('',(0.,0.,55.));
#255 = DIRECTION('',(0.,0.,1.));
#256 = DIRECTION('',(1.,0.,0.));
#257 = ORIENTED_EDGE('',*,*,#258,.F.);
#258 = EDGE_CURVE('',#41,#250,#259,.T.);
#259 = CIRCLE('',#260,12.);
#260 = AXIS2_PLACEMENT_3D('',#261,#262,#263);
#261 = CARTESIAN_POINT('',(0.,0.,55.));
#262 = DIRECTION('',(0.,0.,1.));
#263 = DIRECTION('',(1.,0.,0.));
#264 = ORIENTED_EDGE('',*,*,#40,.T.);
#265 = ORIENTED_EDGE('',*,*,#168,.T.);
#266 = PLANE('',#267);
#267 = AXIS2_PLACEMENT_3D('',#268,#269,#270);
#268 = CARTESIAN_POINT('',(8.75,0.,55.));
#269 = DIRECTION('',(0.,0.,1.));
#270 = DIRECTION('',(1.,0.,0.));
#271 = ADVANCED_FACE('',(#272),#300,.T.);
#272 = FACE_BOUND('',#273,.F.);
#273 = EDGE_LOOP('',(#274,#291,#292,#299));
#274 = ORIENTED_EDGE('',*,*,#275,.T.);
#275 = EDGE_CURVE('',#57,#242,#276,.T.);
#276 = B_SPLINE_CURVE_WITH_KNOTS('',7,(#277,#278,#279,#280,#281,#282,
    #283,#284,#285,#286,#287,#288,#289,#290),.UNSPECIFIED.,.F.,.F.,(8,6,
    8),(0.,0.611151704635,1.),.UNSPECIFIED.);
#277 = CARTESIAN_POINT('',(2.6E-16,12.,56.));
#278 = CARTESIAN_POINT('',(2.6E-16,12.,55.874984219938));
#279 = CARTESIAN_POINT('',(1.823295826432E-02,12.000000072275,
    55.750251590212));
#280 = CARTESIAN_POINT('',(5.455631678369E-02,11.999999665445,
    55.627419103402));
#281 = CARTESIAN_POINT('',(0.10947761351,11.99982641668,55.508683015288)
  );
#282 = CARTESIAN_POINT('',(0.183358752003,11.999132224652,55.39697786068
    ));
#283 = CARTESIAN_POINT('',(0.276162782191,11.997335222333,
    55.295891243117));
#284 = CARTESIAN_POINT('',(0.457672812049,11.991477069299,
    55.155097631907));
#285 = CARTESIAN_POINT('',(0.535602167813,11.988476913417,55.10643020214
    ));
#286 = CARTESIAN_POINT('',(0.62031279938,11.984590297023,55.065271026415
    ));
#287 = CARTESIAN_POINT('',(0.710825628048,11.979662373502,
    55.033045708768));
#288 = CARTESIAN_POINT('',(0.805689024449,11.973583824616,
    55.010997294142));
#289 = CARTESIAN_POINT('',(0.902911633692,11.96637968016,55.));
#290 = CARTESIAN_POINT('',(1.,11.958260743101,55.));
#291 = ORIENTED_EDGE('',*,*,#241,.T.);
#292 = ORIENTED_EDGE('',*,*,#293,.F.);
#293 = EDGE_CURVE('',#65,#234,#294,.T.);
#294 = CIRCLE('',#295,1.);
#295 = AXIS2_PLACEMENT_3D('',#296,#297,#298);
#296 = CARTESIAN_POINT('',(1.,24.5,56.));
#297 = DIRECTION('',(0.,-1.,0.));
#298 = DIRECTION('',(-1.,0.,0.));
#299 = ORIENTED_EDGE('',*,*,#64,.F.);
#300 = CYLINDRICAL_SURFACE('',#301,1.);
#301 = AXIS2_PLACEMENT_3D('',#302,#303,#304);
#302 = CARTESIAN_POINT('',(1.,12.,56.));
#303 = DIRECTION('',(0.,1.,0.));
#304 = DIRECTION('',(-1.,-0.,-0.));
#305 = ADVANCED_FACE('',(#306),#316,.T.);
#306 = FACE_BOUND('',#307,.T.);
#307 = EDGE_LOOP('',(#308,#309));
#308 = ORIENTED_EDGE('',*,*,#48,.F.);
#309 = ORIENTED_EDGE('',*,*,#310,.T.);
#310 = EDGE_CURVE('',#49,#41,#311,.T.);
#311 = CIRCLE('',#312,12.);
#312 = AXIS2_PLACEMENT_3D('',#313,#314,#315);
#313 = CARTESIAN_POINT('',(0.,0.,55.));
#314 = DIRECTION('',(0.,0.,1.));
#315 = DIRECTION('',(1.,0.,0.));
#316 = PLANE('',#317);
#317 = AXIS2_PLACEMENT_3D('',#318,#319,#320);
#318 = CARTESIAN_POINT('',(-6.8E-16,-3.E-17,55.));
#319 = DIRECTION('',(0.,0.,1.));
#320 = DIRECTION('',(1.,0.,0.));
#321 = ADVANCED_FACE('',(#322),#345,.T.);
#322 = FACE_BOUND('',#323,.F.);
#323 = EDGE_LOOP('',(#324,#325,#326,#327,#328,#329,#337,#344));
#324 = ORIENTED_EDGE('',*,*,#249,.T.);
#325 = ORIENTED_EDGE('',*,*,#275,.F.);
#326 = ORIENTED_EDGE('',*,*,#56,.F.);
#327 = ORIENTED_EDGE('',*,*,#310,.T.);
#328 = ORIENTED_EDGE('',*,*,#258,.T.);
#329 = ORIENTED_EDGE('',*,*,#330,.F.);
#330 = EDGE_CURVE('',#331,#250,#333,.T.);
#331 = VERTEX_POINT('',#332);
#332 = CARTESIAN_POINT('',(12.,0.,0.));
#333 = LINE('',#334,#335);
#334 = CARTESIAN_POINT('',(12.,0.,0.));
#335 = VECTOR('',#336,1.);
#336 = DIRECTION('',(0.,0.,1.));
#337 = ORIENTED_EDGE('',*,*,#338,.F.);
#338 = EDGE_CURVE('',#331,#331,#339,.T.);
#339 = CIRCLE('',#340,12.);
#340 = AXIS2_PLACEMENT_3D('',#341,#342,#343);
#341 = CARTESIAN_POINT('',(0.,0.,0.));
#342 = DIRECTION('',(0.,0.,1.));
#343 = DIRECTION('',(1.,0.,0.));
#344 = ORIENTED_EDGE('',*,*,#330,.T.);
#345 = CYLINDRICAL_SURFACE('',#346,12.);
#346 = AXIS2_PLACEMENT_3D('',#347,#348,#349);
#347 = CARTESIAN_POINT('',(0.,0.,0.));
#348 = DIRECTION('',(-0.,-0.,-1.));
#349 = DIRECTION('',(1.,0.,0.));
#350 = ADVANCED_FACE('',(#351),#378,.T.);
#351 = FACE_BOUND('',#352,.T.);
#352 = EDGE_LOOP('',(#353,#354,#363,#371));
#353 = ORIENTED_EDGE('',*,*,#94,.F.);
#354 = ORIENTED_EDGE('',*,*,#355,.T.);
#355 = EDGE_CURVE('',#95,#356,#358,.T.);
#356 = VERTEX_POINT('',#357);
#357 = CARTESIAN_POINT('',(17.5,-24.5,56.9));
#358 = CIRCLE('',#359,1.);
#359 = AXIS2_PLACEMENT_3D('',#360,#361,#362);
#360 = CARTESIAN_POINT('',(16.5,-24.5,56.9));
#361 = DIRECTION('',(6.E-17,-0.,1.));
#362 = DIRECTION('',(1.,0.,-6.E-17));
#363 = ORIENTED_EDGE('',*,*,#364,.T.);
#364 = EDGE_CURVE('',#356,#365,#367,.T.);
#365 = VERTEX_POINT('',#366);
#366 = CARTESIAN_POINT('',(17.5,-24.5,74.));
#367 = LINE('',#368,#369);
#368 = CARTESIAN_POINT('',(17.5,-24.5,56.9));
#369 = VECTOR('',#370,1.);
#370 = DIRECTION('',(0.,0.,1.));
#371 = ORIENTED_EDGE('',*,*,#372,.F.);
#372 = EDGE_CURVE('',#97,#365,#373,.T.);
#373 = CIRCLE('',#374,1.);
#374 = AXIS2_PLACEMENT_3D('',#375,#376,#377);
#375 = CARTESIAN_POINT('',(16.5,-24.5,74.));
#376 = DIRECTION('',(0.,0.,1.));
#377 = DIRECTION('',(0.,-1.,0.));
#378 = CYLINDRICAL_SURFACE('',#379,1.);
#379 = AXIS2_PLACEMENT_3D('',#380,#381,#382);
#380 = CARTESIAN_POINT('',(16.5,-24.5,56.9));
#381 = DIRECTION('',(0.,0.,1.));
#382 = DIRECTION('',(0.,-1.,0.));
#383 = ADVANCED_FACE('',(#384),#403,.T.);
#384 = FACE_BOUND('',#385,.F.);
#385 = EDGE_LOOP('',(#386,#387,#395,#402));
#386 = ORIENTED_EDGE('',*,*,#151,.T.);
#387 = ORIENTED_EDGE('',*,*,#388,.T.);
#388 = EDGE_CURVE('',#144,#389,#391,.T.);
#389 = VERTEX_POINT('',#390);
#390 = CARTESIAN_POINT('',(16.5,-24.5,75.));
#391 = LINE('',#392,#393);
#392 = CARTESIAN_POINT('',(0.,-24.5,75.));
#393 = VECTOR('',#394,1.);
#394 = DIRECTION('',(1.,0.,0.));
#395 = ORIENTED_EDGE('',*,*,#396,.F.);
#396 = EDGE_CURVE('',#97,#389,#397,.T.);
#397 = CIRCLE('',#398,1.);
#398 = AXIS2_PLACEMENT_3D('',#399,#400,#401);
#399 = CARTESIAN_POINT('',(16.5,-24.5,74.));
#400 = DIRECTION('',(-1.,-0.,0.));
#401 = DIRECTION('',(0.,-1.,0.));
#402 = ORIENTED_EDGE('',*,*,#120,.F.);
#403 = CYLINDRICAL_SURFACE('',#404,1.);
#404 = AXIS2_PLACEMENT_3D('',#405,#406,#407);
#405 = CARTESIAN_POINT('',(0.,-24.5,74.));
#406 = DIRECTION('',(1.,0.,0.));
#407 = DIRECTION('',(0.,-1.,-0.));
#408 = ADVANCED_FACE('',(#409),#421,.T.);
#409 = FACE_BOUND('',#410,.F.);
#410 = EDGE_LOOP('',(#411,#412,#413,#414));
#411 = ORIENTED_EDGE('',*,*,#176,.F.);
#412 = ORIENTED_EDGE('',*,*,#104,.T.);
#413 = ORIENTED_EDGE('',*,*,#355,.T.);
#414 = ORIENTED_EDGE('',*,*,#415,.F.);
#415 = EDGE_CURVE('',#169,#356,#416,.T.);
#416 = CIRCLE('',#417,1.9);
#417 = AXIS2_PLACEMENT_3D('',#418,#419,#420);
#418 = CARTESIAN_POINT('',(15.6,-24.5,56.9));
#419 = DIRECTION('',(0.,-1.,0.));
#420 = DIRECTION('',(0.,0.,-1.));
#421 = SURFACE_OF_REVOLUTION('',#422,#433);
#422 = B_SPLINE_CURVE_WITH_KNOTS('',5,(#423,#424,#425,#426,#427,#428,
    #429,#430,#431,#432),.UNSPECIFIED.,.F.,.F.,(6,4,6),(4.712388980385,
    5.497787143782,6.28318530718),.UNSPECIFIED.);
#423 = CARTESIAN_POINT('',(15.6,-25.5,56.));
#424 = CARTESIAN_POINT('',(15.6,-25.5,55.84292036732));
#425 = CARTESIAN_POINT('',(15.6,-25.46916440705,55.685838246018));
#426 = CARTESIAN_POINT('',(15.6,-25.40744863094,55.536843182317));
#427 = CARTESIAN_POINT('',(15.6,-25.31817885464,55.403965292267));
#428 = CARTESIAN_POINT('',(15.6,-25.09603470773,55.181821145359));
#429 = CARTESIAN_POINT('',(15.6,-24.96315681768,55.092551369057));
#430 = CARTESIAN_POINT('',(15.6,-24.81416175398,55.030835592946));
#431 = CARTESIAN_POINT('',(15.6,-24.65707963267,55.));
#432 = CARTESIAN_POINT('',(15.6,-24.5,55.));
#433 = AXIS1_PLACEMENT('',#434,#435);
#434 = CARTESIAN_POINT('',(15.6,-24.5,56.9));
#435 = DIRECTION('',(0.,1.,0.));
#436 = ADVANCED_FACE('',(#437),#448,.T.);
#437 = FACE_BOUND('',#438,.T.);
#438 = EDGE_LOOP('',(#439,#446,#447));
#439 = ORIENTED_EDGE('',*,*,#440,.F.);
#440 = EDGE_CURVE('',#203,#135,#441,.T.);
#441 = CIRCLE('',#442,1.);
#442 = AXIS2_PLACEMENT_3D('',#443,#444,#445);
#443 = CARTESIAN_POINT('',(1.,24.5,74.));
#444 = DIRECTION('',(1.,0.,-0.));
#445 = DIRECTION('',(0.,1.,0.));
#446 = ORIENTED_EDGE('',*,*,#210,.T.);
#447 = ORIENTED_EDGE('',*,*,#134,.T.);
#448 = SPHERICAL_SURFACE('',#449,1.);
#449 = AXIS2_PLACEMENT_3D('',#450,#451,#452);
#450 = CARTESIAN_POINT('',(1.,24.5,74.));
#451 = DIRECTION('',(0.,0.,1.));
#452 = DIRECTION('',(-3.3E-16,1.,0.));
#453 = ADVANCED_FACE('',(#454),#472,.T.);
#454 = FACE_BOUND('',#455,.T.);
#455 = EDGE_LOOP('',(#456,#457,#465,#471));
#456 = ORIENTED_EDGE('',*,*,#388,.T.);
#457 = ORIENTED_EDGE('',*,*,#458,.T.);
#458 = EDGE_CURVE('',#389,#459,#461,.T.);
#459 = VERTEX_POINT('',#460);
#460 = CARTESIAN_POINT('',(16.5,24.5,75.));
#461 = LINE('',#462,#463);
#462 = CARTESIAN_POINT('',(16.5,-24.5,75.));
#463 = VECTOR('',#464,1.);
#464 = DIRECTION('',(0.,1.,0.));
#465 = ORIENTED_EDGE('',*,*,#466,.T.);
#466 = EDGE_CURVE('',#459,#135,#467,.T.);
#467 = LINE('',#468,#469);
#468 = CARTESIAN_POINT('',(16.5,24.5,75.));
#469 = VECTOR('',#470,1.);
#470 = DIRECTION('',(-1.,0.,0.));
#471 = ORIENTED_EDGE('',*,*,#143,.T.);
#472 = PLANE('',#473);
#473 = AXIS2_PLACEMENT_3D('',#474,#475,#476);
#474 = CARTESIAN_POINT('',(8.75,0.,75.));
#475 = DIRECTION('',(0.,0.,1.));
#476 = DIRECTION('',(1.,0.,0.));
#477 = ADVANCED_FACE('',(#478),#489,.T.);
#478 = FACE_BOUND('',#479,.T.);
#479 = EDGE_LOOP('',(#480,#481,#482));
#480 = ORIENTED_EDGE('',*,*,#293,.F.);
#481 = ORIENTED_EDGE('',*,*,#193,.T.);
#482 = ORIENTED_EDGE('',*,*,#483,.F.);
#483 = EDGE_CURVE('',#234,#194,#484,.T.);
#484 = CIRCLE('',#485,1.);
#485 = AXIS2_PLACEMENT_3D('',#486,#487,#488);
#486 = CARTESIAN_POINT('',(1.,24.5,56.));
#487 = DIRECTION('',(1.,-0.,0.));
#488 = DIRECTION('',(0.,0.,-1.));
#489 = SPHERICAL_SURFACE('',#490,1.);
#490 = AXIS2_PLACEMENT_3D('',#491,#492,#493);
#491 = CARTESIAN_POINT('',(1.,24.5,56.));
#492 = DIRECTION('',(1.,0.,0.));
#493 = DIRECTION('',(0.,0.,-1.));
#494 = ADVANCED_FACE('',(#495),#529,.F.);
#495 = FACE_BOUND('',#496,.F.);
#496 = EDGE_LOOP('',(#497,#498,#506,#515,#523));
#497 = ORIENTED_EDGE('',*,*,#202,.F.);
#498 = ORIENTED_EDGE('',*,*,#499,.F.);
#499 = EDGE_CURVE('',#500,#194,#502,.T.);
#500 = VERTEX_POINT('',#501);
#501 = CARTESIAN_POINT('',(15.6,25.5,56.));
#502 = LINE('',#503,#504);
#503 = CARTESIAN_POINT('',(15.6,25.5,56.));
#504 = VECTOR('',#505,1.);
#505 = DIRECTION('',(-1.,0.,0.));
#506 = ORIENTED_EDGE('',*,*,#507,.F.);
#507 = EDGE_CURVE('',#508,#500,#510,.T.);
#508 = VERTEX_POINT('',#509);
#509 = CARTESIAN_POINT('',(16.5,25.5,56.9));
#510 = CIRCLE('',#511,0.9);
#511 = AXIS2_PLACEMENT_3D('',#512,#513,#514);
#512 = CARTESIAN_POINT('',(15.6,25.5,56.9));
#513 = DIRECTION('',(-0.,1.,0.));
#514 = DIRECTION('',(1.,0.,0.));
#515 = ORIENTED_EDGE('',*,*,#516,.F.);
#516 = EDGE_CURVE('',#517,#508,#519,.T.);
#517 = VERTEX_POINT('',#518);
#518 = CARTESIAN_POINT('',(16.5,25.5,74.));
#519 = LINE('',#520,#521);
#520 = CARTESIAN_POINT('',(16.5,25.5,75.));
#521 = VECTOR('',#522,1.);
#522 = DIRECTION('',(-0.,-0.,-1.));
#523 = ORIENTED_EDGE('',*,*,#524,.T.);
#524 = EDGE_CURVE('',#517,#203,#525,.T.);
#525 = LINE('',#526,#527);
#526 = CARTESIAN_POINT('',(16.5,25.5,74.));
#527 = VECTOR('',#528,1.);
#528 = DIRECTION('',(-1.,0.,0.));
#529 = PLANE('',#530);
#530 = AXIS2_PLACEMENT_3D('',#531,#532,#533);
#531 = CARTESIAN_POINT('',(17.5,25.5,55.));
#532 = DIRECTION('',(0.,-1.,0.));
#533 = DIRECTION('',(-1.,0.,0.));
#534 = ADVANCED_FACE('',(#535),#554,.T.);
#535 = FACE_BOUND('',#536,.F.);
#536 = EDGE_LOOP('',(#537,#538,#539,#547));
#537 = ORIENTED_EDGE('',*,*,#225,.F.);
#538 = ORIENTED_EDGE('',*,*,#415,.T.);
#539 = ORIENTED_EDGE('',*,*,#540,.T.);
#540 = EDGE_CURVE('',#356,#541,#543,.T.);
#541 = VERTEX_POINT('',#542);
#542 = CARTESIAN_POINT('',(17.5,24.5,56.9));
#543 = LINE('',#544,#545);
#544 = CARTESIAN_POINT('',(17.5,-25.5,56.9));
#545 = VECTOR('',#546,1.);
#546 = DIRECTION('',(0.,1.,0.));
#547 = ORIENTED_EDGE('',*,*,#548,.T.);
#548 = EDGE_CURVE('',#541,#226,#549,.T.);
#549 = CIRCLE('',#550,1.9);
#550 = AXIS2_PLACEMENT_3D('',#551,#552,#553);
#551 = CARTESIAN_POINT('',(15.6,24.5,56.9));
#552 = DIRECTION('',(-0.,1.,0.));
#553 = DIRECTION('',(1.,0.,0.));
#554 = CYLINDRICAL_SURFACE('',#555,1.9);
#555 = AXIS2_PLACEMENT_3D('',#556,#557,#558);
#556 = CARTESIAN_POINT('',(15.6,-25.5,56.9));
#557 = DIRECTION('',(0.,1.,0.));
#558 = DIRECTION('',(0.,0.,-1.));
#559 = ADVANCED_FACE('',(#560),#572,.T.);
#560 = FACE_BOUND('',#561,.F.);
#561 = EDGE_LOOP('',(#562,#563,#570,#571));
#562 = ORIENTED_EDGE('',*,*,#233,.F.);
#563 = ORIENTED_EDGE('',*,*,#564,.T.);
#564 = EDGE_CURVE('',#226,#500,#565,.T.);
#565 = CIRCLE('',#566,1.);
#566 = AXIS2_PLACEMENT_3D('',#567,#568,#569);
#567 = CARTESIAN_POINT('',(15.6,24.5,56.));
#568 = DIRECTION('',(1.,-0.,6.E-17));
#569 = DIRECTION('',(6.E-17,0.,-1.));
#570 = ORIENTED_EDGE('',*,*,#499,.T.);
#571 = ORIENTED_EDGE('',*,*,#483,.F.);
#572 = CYLINDRICAL_SURFACE('',#573,1.);
#573 = AXIS2_PLACEMENT_3D('',#574,#575,#576);
#574 = CARTESIAN_POINT('',(15.6,24.5,56.));
#575 = DIRECTION('',(-1.,0.,0.));
#576 = DIRECTION('',(0.,0.,-1.));
#577 = ADVANCED_FACE('',(#578),#581,.F.);
#578 = FACE_BOUND('',#579,.F.);
#579 = EDGE_LOOP('',(#580));
#580 = ORIENTED_EDGE('',*,*,#338,.T.);
#581 = PLANE('',#582);
#582 = AXIS2_PLACEMENT_3D('',#583,#584,#585);
#583 = CARTESIAN_POINT('',(-6.8E-16,-3.E-17,0.));
#584 = DIRECTION('',(0.,0.,1.));
#585 = DIRECTION('',(1.,0.,0.));
#586 = ADVANCED_FACE('',(#587),#598,.T.);
#587 = FACE_BOUND('',#588,.T.);
#588 = EDGE_LOOP('',(#589,#590,#591));
#589 = ORIENTED_EDGE('',*,*,#396,.F.);
#590 = ORIENTED_EDGE('',*,*,#372,.T.);
#591 = ORIENTED_EDGE('',*,*,#592,.T.);
#592 = EDGE_CURVE('',#365,#389,#593,.T.);
#593 = CIRCLE('',#594,1.);
#594 = AXIS2_PLACEMENT_3D('',#595,#596,#597);
#595 = CARTESIAN_POINT('',(16.5,-24.5,74.));
#596 = DIRECTION('',(-6.E-17,-1.,0.));
#597 = DIRECTION('',(1.,-6.E-17,0.));
#598 = SPHERICAL_SURFACE('',#599,1.);
#599 = AXIS2_PLACEMENT_3D('',#600,#601,#602);
#600 = CARTESIAN_POINT('',(16.5,-24.5,74.));
#601 = DIRECTION('',(0.,0.,1.));
#602 = DIRECTION('',(0.,-1.,0.));
#603 = ADVANCED_FACE('',(#604),#622,.F.);
#604 = FACE_BOUND('',#605,.F.);
#605 = EDGE_LOOP('',(#606,#607,#615,#621));
#606 = ORIENTED_EDGE('',*,*,#364,.T.);
#607 = ORIENTED_EDGE('',*,*,#608,.T.);
#608 = EDGE_CURVE('',#365,#609,#611,.T.);
#609 = VERTEX_POINT('',#610);
#610 = CARTESIAN_POINT('',(17.5,24.5,74.));
#611 = LINE('',#612,#613);
#612 = CARTESIAN_POINT('',(17.5,-24.5,74.));
#613 = VECTOR('',#614,1.);
#614 = DIRECTION('',(0.,1.,0.));
#615 = ORIENTED_EDGE('',*,*,#616,.T.);
#616 = EDGE_CURVE('',#609,#541,#617,.T.);
#617 = LINE('',#618,#619);
#618 = CARTESIAN_POINT('',(17.5,24.5,75.));
#619 = VECTOR('',#620,1.);
#620 = DIRECTION('',(-0.,-0.,-1.));
#621 = ORIENTED_EDGE('',*,*,#540,.F.);
#622 = PLANE('',#623);
#623 = AXIS2_PLACEMENT_3D('',#624,#625,#626);
#624 = CARTESIAN_POINT('',(17.5,-25.5,55.));
#625 = DIRECTION('',(-1.,0.,0.));
#626 = DIRECTION('',(0.,1.,0.));
#627 = ADVANCED_FACE('',(#628),#640,.T.);
#628 = FACE_BOUND('',#629,.F.);
#629 = EDGE_LOOP('',(#630,#637,#638,#639));
#630 = ORIENTED_EDGE('',*,*,#631,.T.);
#631 = EDGE_CURVE('',#517,#459,#632,.T.);
#632 = CIRCLE('',#633,1.);
#633 = AXIS2_PLACEMENT_3D('',#634,#635,#636);
#634 = CARTESIAN_POINT('',(16.5,24.5,74.));
#635 = DIRECTION('',(1.,-6.E-17,0.));
#636 = DIRECTION('',(6.E-17,1.,0.));
#637 = ORIENTED_EDGE('',*,*,#466,.T.);
#638 = ORIENTED_EDGE('',*,*,#440,.F.);
#639 = ORIENTED_EDGE('',*,*,#524,.F.);
#640 = CYLINDRICAL_SURFACE('',#641,1.);
#641 = AXIS2_PLACEMENT_3D('',#642,#643,#644);
#642 = CARTESIAN_POINT('',(16.5,24.5,74.));
#643 = DIRECTION('',(-1.,0.,0.));
#644 = DIRECTION('',(0.,1.,-0.));
#645 = ADVANCED_FACE('',(#646),#658,.T.);
#646 = FACE_BOUND('',#647,.F.);
#647 = EDGE_LOOP('',(#648,#649,#650,#657));
#648 = ORIENTED_EDGE('',*,*,#592,.T.);
#649 = ORIENTED_EDGE('',*,*,#458,.T.);
#650 = ORIENTED_EDGE('',*,*,#651,.F.);
#651 = EDGE_CURVE('',#609,#459,#652,.T.);
#652 = CIRCLE('',#653,1.);
#653 = AXIS2_PLACEMENT_3D('',#654,#655,#656);
#654 = CARTESIAN_POINT('',(16.5,24.5,74.));
#655 = DIRECTION('',(0.,-1.,-0.));
#656 = DIRECTION('',(1.,0.,-0.));
#657 = ORIENTED_EDGE('',*,*,#608,.F.);
#658 = CYLINDRICAL_SURFACE('',#659,1.);
#659 = AXIS2_PLACEMENT_3D('',#660,#661,#662);
#660 = CARTESIAN_POINT('',(16.5,-24.5,74.));
#661 = DIRECTION('',(0.,1.,0.));
#662 = DIRECTION('',(1.,0.,-0.));
#663 = ADVANCED_FACE('',(#664),#682,.T.);
#664 = FACE_BOUND('',#665,.F.);
#665 = EDGE_LOOP('',(#666,#667,#674,#675));
#666 = ORIENTED_EDGE('',*,*,#616,.F.);
#667 = ORIENTED_EDGE('',*,*,#668,.T.);
#668 = EDGE_CURVE('',#609,#517,#669,.T.);
#669 = CIRCLE('',#670,1.);
#670 = AXIS2_PLACEMENT_3D('',#671,#672,#673);
#671 = CARTESIAN_POINT('',(16.5,24.5,74.));
#672 = DIRECTION('',(0.,0.,1.));
#673 = DIRECTION('',(1.,0.,-0.));
#674 = ORIENTED_EDGE('',*,*,#516,.T.);
#675 = ORIENTED_EDGE('',*,*,#676,.F.);
#676 = EDGE_CURVE('',#541,#508,#677,.T.);
#677 = CIRCLE('',#678,1.);
#678 = AXIS2_PLACEMENT_3D('',#679,#680,#681);
#679 = CARTESIAN_POINT('',(16.5,24.5,56.9));
#680 = DIRECTION('',(0.,0.,1.));
#681 = DIRECTION('',(1.,0.,0.));
#682 = CYLINDRICAL_SURFACE('',#683,1.);
#683 = AXIS2_PLACEMENT_3D('',#684,#685,#686);
#684 = CARTESIAN_POINT('',(16.5,24.5,75.));
#685 = DIRECTION('',(-0.,-0.,-1.));
#686 = DIRECTION('',(1.,0.,0.));
#687 = ADVANCED_FACE('',(#688),#694,.T.);
#688 = FACE_BOUND('',#689,.T.);
#689 = EDGE_LOOP('',(#690,#691,#692,#693));
#690 = ORIENTED_EDGE('',*,*,#676,.F.);
#691 = ORIENTED_EDGE('',*,*,#548,.T.);
#692 = ORIENTED_EDGE('',*,*,#564,.T.);
#693 = ORIENTED_EDGE('',*,*,#507,.F.);
#694 = SURFACE_OF_REVOLUTION('',#695,#706);
#695 = B_SPLINE_CURVE_WITH_KNOTS('',5,(#696,#697,#698,#699,#700,#701,
    #702,#703,#704,#705),.UNSPECIFIED.,.F.,.F.,(6,4,6),(0.,
    0.785398163397,1.570796326795),.UNSPECIFIED.);
#696 = CARTESIAN_POINT('',(17.5,24.5,56.9));
#697 = CARTESIAN_POINT('',(17.5,24.657079632679,56.9));
#698 = CARTESIAN_POINT('',(17.469164407054,24.814161753982,56.9));
#699 = CARTESIAN_POINT('',(17.407448630943,24.963156817683,56.9));
#700 = CARTESIAN_POINT('',(17.31817885464,25.096034707733,56.9));
#701 = CARTESIAN_POINT('',(17.096034707733,25.31817885464,56.9));
#702 = CARTESIAN_POINT('',(16.963156817683,25.407448630943,56.9));
#703 = CARTESIAN_POINT('',(16.814161753982,25.469164407054,56.9));
#704 = CARTESIAN_POINT('',(16.657079632679,25.5,56.9));
#705 = CARTESIAN_POINT('',(16.5,25.5,56.9));
#706 = AXIS1_PLACEMENT('',#707,#708);
#707 = CARTESIAN_POINT('',(15.6,24.5,56.9));
#708 = DIRECTION('',(0.,1.,0.));
#709 = ADVANCED_FACE('',(#710),#715,.T.);
#710 = FACE_BOUND('',#711,.T.);
#711 = EDGE_LOOP('',(#712,#713,#714));
#712 = ORIENTED_EDGE('',*,*,#651,.F.);
#713 = ORIENTED_EDGE('',*,*,#668,.T.);
#714 = ORIENTED_EDGE('',*,*,#631,.T.);
#715 = SPHERICAL_SURFACE('',#716,1.);
#716 = AXIS2_PLACEMENT_3D('',#717,#718,#719);
#717 = CARTESIAN_POINT('',(16.5,24.5,74.));
#718 = DIRECTION('',(0.,0.,1.));
#719 = DIRECTION('',(1.,0.,-0.));
#720 = ( GEOMETRIC_REPRESENTATION_CONTEXT(3) 
GLOBAL_UNCERTAINTY_ASSIGNED_CONTEXT((#724)) GLOBAL_UNIT_ASSIGNED_CONTEXT
((#721,#722,#723)) REPRESENTATION_CONTEXT('Context #1',
  '3D Context with UNIT and UNCERTAINTY') );
#721 = ( LENGTH_UNIT() NAMED_UNIT(*) SI_UNIT(.MILLI.,.METRE.) );
#722 = ( NAMED_UNIT(*) PLANE_ANGLE_UNIT() SI_UNIT($,.RADIAN.) );
#723 = ( NAMED_UNIT(*) SI_UNIT($,.STERADIAN.) SOLID_ANGLE_UNIT() );
#724 = UNCERTAINTY_MEASURE_WITH_UNIT(LENGTH_MEASURE(1.E-07),#721,
  'distance_accuracy_value','confusion accuracy');
#725 = PRODUCT_RELATED_PRODUCT_CATEGORY('part',$,(#7));
#726 = MECHANICAL_DESIGN_GEOMETRIC_PRESENTATION_REPRESENTATION('',(#727)
  ,#720);
#727 = STYLED_ITEM('color',(#728),#15);
#728 = PRESENTATION_STYLE_ASSIGNMENT((#729,#735));
#729 = SURFACE_STYLE_USAGE(.BOTH.,#730);
#730 = SURFACE_SIDE_STYLE('',(#731));
#731 = SURFACE_STYLE_FILL_AREA(#732);
#732 = FILL_AREA_STYLE('',(#733));
#733 = FILL_AREA_STYLE_COLOUR('',#734);
#734 = COLOUR_RGB('',0.447058818107,0.474509808674,0.501960817233);
#735 = CURVE_STYLE('',#736,POSITIVE_LENGTH_MEASURE(0.1),#737);
#736 = DRAUGHTING_PRE_DEFINED_CURVE_FONT('continuous');
#737 = COLOUR_RGB('',9.803921802644E-02,9.803921802644E-02,
  9.803921802644E-02);
ENDSEC;
END-ISO-10303-21;
