ISO-10303-21;
HEADER;
FILE_DESCRIPTION(('FreeCAD Model'),'2;1');
FILE_NAME('Open CASCADE Shape Model','2026-09-26T21:27:30',(''),(''),
  'Open CASCADE STEP processor 7.8','FreeCAD','Unknown');
FILE_SCHEMA(('AUTOMOTIVE_DESIGN { 1 0 10303 214 1 1 1 1 }'));
ENDSEC;
DATA;
#1 = APPLICATION_PROTOCOL_DEFINITION('international standard',
  'automotive_design',2000,#2);
#2 = APPLICATION_CONTEXT(
  'core data for automotive mechanical design processes');
#3 = SHAPE_DEFINITION_REPRESENTATION(#4,#10);
#4 = PRODUCT_DEFINITION_SHAPE('','',#5);
#5 = PRODUCT_DEFINITION('design','',#6,#9);
#6 = PRODUCT_DEFINITION_FORMATION('','',#7);
#7 = PRODUCT('Pocket002','Pocket002','',(#8));
#8 = PRODUCT_CONTEXT('',#2,'mechanical');
#9 = PRODUCT_DEFINITION_CONTEXT('part definition',#2,'design');
#10 = ADVANCED_BREP_SHAPE_REPRESENTATION('',(#11,#15),#1521);
#11 = AXIS2_PLACEMENT_3D('',#12,#13,#14);
#12 = CARTESIAN_POINT('',(0.,0.,0.));
#13 = DIRECTION('',(0.,0.,1.));
#14 = DIRECTION('',(1.,0.,-0.));
#15 = MANIFOLD_SOLID_BREP('',#16);
#16 = CLOSED_SHELL('',(#17,#89,#306,#330,#354,#378,#470,#494,#518,#535,
    #574,#598,#645,#670,#687,#711,#735,#760,#784,#808,#832,#856,#880,
    #904,#929,#953,#977,#1001,#1019,#1044,#1069,#1100,#1124,#1148,#1165,
    #1196,#1220,#1244,#1261,#1273,#1306,#1323,#1355,#1370,#1387,#1419,
    #1434,#1451,#1474,#1485,#1497,#1509));
#17 = ADVANCED_FACE('',(#18),#84,.T.);
#18 = FACE_BOUND('',#19,.T.);
#19 = EDGE_LOOP('',(#20,#30,#38,#46,#54,#62,#70,#78));
#20 = ORIENTED_EDGE('',*,*,#21,.F.);
#21 = EDGE_CURVE('',#22,#24,#26,.T.);
#22 = VERTEX_POINT('',#23);
#23 = CARTESIAN_POINT('',(-100.,0.,35.));
#24 = VERTEX_POINT('',#25);
#25 = CARTESIAN_POINT('',(-100.,0.,-35.));
#26 = LINE('',#27,#28);
#27 = CARTESIAN_POINT('',(-100.,0.,35.));
#28 = VECTOR('',#29,1.);
#29 = DIRECTION('',(0.,0.,-1.));
#30 = ORIENTED_EDGE('',*,*,#31,.T.);
#31 = EDGE_CURVE('',#22,#32,#34,.T.);
#32 = VERTEX_POINT('',#33);
#33 = CARTESIAN_POINT('',(-100.,-21.99,35.));
#34 = LINE('',#35,#36);
#35 = CARTESIAN_POINT('',(-100.,7.77E-15,35.));
#36 = VECTOR('',#37,1.);
#37 = DIRECTION('',(0.,-1.,2.2E-16));
#38 = ORIENTED_EDGE('',*,*,#39,.T.);
#39 = EDGE_CURVE('',#32,#40,#42,.T.);
#40 = VERTEX_POINT('',#41);
#41 = CARTESIAN_POINT('',(-100.,-21.99,34.));
#42 = LINE('',#43,#44);
#43 = CARTESIAN_POINT('',(-100.,-21.99,35.));
#44 = VECTOR('',#45,1.);
#45 = DIRECTION('',(0.,0.,-1.));
#46 = ORIENTED_EDGE('',*,*,#47,.F.);
#47 = EDGE_CURVE('',#48,#40,#50,.T.);
#48 = VERTEX_POINT('',#49);
#49 = CARTESIAN_POINT('',(-100.,-22.,34.));
#50 = LINE('',#51,#52);
#51 = CARTESIAN_POINT('',(-100.,-22.,34.));
#52 = VECTOR('',#53,1.);
#53 = DIRECTION('',(0.,1.,-2.2E-16));
#54 = ORIENTED_EDGE('',*,*,#55,.T.);
#55 = EDGE_CURVE('',#48,#56,#58,.T.);
#56 = VERTEX_POINT('',#57);
#57 = CARTESIAN_POINT('',(-100.,-22.,-34.));
#58 = LINE('',#59,#60);
#59 = CARTESIAN_POINT('',(-100.,-22.,35.));
#60 = VECTOR('',#61,1.);
#61 = DIRECTION('',(0.,0.,-1.));
#62 = ORIENTED_EDGE('',*,*,#63,.T.);
#63 = EDGE_CURVE('',#56,#64,#66,.T.);
#64 = VERTEX_POINT('',#65);
#65 = CARTESIAN_POINT('',(-100.,-21.99,-34.));
#66 = LINE('',#67,#68);
#67 = CARTESIAN_POINT('',(-100.,-22.,-34.));
#68 = VECTOR('',#69,1.);
#69 = DIRECTION('',(0.,1.,-2.2E-16));
#70 = ORIENTED_EDGE('',*,*,#71,.F.);
#71 = EDGE_CURVE('',#72,#64,#74,.T.);
#72 = VERTEX_POINT('',#73);
#73 = CARTESIAN_POINT('',(-100.,-21.99,-35.));
#74 = LINE('',#75,#76);
#75 = CARTESIAN_POINT('',(-100.,-21.99,-35.));
#76 = VECTOR('',#77,1.);
#77 = DIRECTION('',(0.,0.,1.));
#78 = ORIENTED_EDGE('',*,*,#79,.F.);
#79 = EDGE_CURVE('',#24,#72,#80,.T.);
#80 = LINE('',#81,#82);
#81 = CARTESIAN_POINT('',(-100.,-7.77E-15,-35.));
#82 = VECTOR('',#83,1.);
#83 = DIRECTION('',(0.,-1.,2.2E-16));
#84 = PLANE('',#85);
#85 = AXIS2_PLACEMENT_3D('',#86,#87,#88);
#86 = CARTESIAN_POINT('',(-100.,7.77E-15,35.));
#87 = DIRECTION('',(1.,0.,0.));
#88 = DIRECTION('',(0.,-2.2E-16,-1.));
#89 = ADVANCED_FACE('',(#90,#279,#290),#301,.T.);
#90 = FACE_BOUND('',#91,.T.);
#91 = EDGE_LOOP('',(#92,#100,#101,#109,#117,#125,#133,#142,#150,#158,
    #166,#174,#182,#191,#199,#208,#216,#224,#232,#240,#248,#257,#265,
    #273));
#92 = ORIENTED_EDGE('',*,*,#93,.T.);
#93 = EDGE_CURVE('',#94,#22,#96,.T.);
#94 = VERTEX_POINT('',#95);
#95 = CARTESIAN_POINT('',(100.,0.,35.));
#96 = LINE('',#97,#98);
#97 = CARTESIAN_POINT('',(100.,0.,35.));
#98 = VECTOR('',#99,1.);
#99 = DIRECTION('',(-1.,0.,0.));
#100 = ORIENTED_EDGE('',*,*,#21,.T.);
#101 = ORIENTED_EDGE('',*,*,#102,.T.);
#102 = EDGE_CURVE('',#24,#103,#105,.T.);
#103 = VERTEX_POINT('',#104);
#104 = CARTESIAN_POINT('',(100.,0.,-35.));
#105 = LINE('',#106,#107);
#106 = CARTESIAN_POINT('',(-100.,0.,-35.));
#107 = VECTOR('',#108,1.);
#108 = DIRECTION('',(1.,0.,0.));
#109 = ORIENTED_EDGE('',*,*,#110,.T.);
#110 = EDGE_CURVE('',#103,#111,#113,.T.);
#111 = VERTEX_POINT('',#112);
#112 = CARTESIAN_POINT('',(100.,-5.E-15,-15.));
#113 = LINE('',#114,#115);
#114 = CARTESIAN_POINT('',(100.,0.,-35.));
#115 = VECTOR('',#116,1.);
#116 = DIRECTION('',(0.,0.,1.));
#117 = ORIENTED_EDGE('',*,*,#118,.F.);
#118 = EDGE_CURVE('',#119,#111,#121,.T.);
#119 = VERTEX_POINT('',#120);
#120 = CARTESIAN_POINT('',(102.,-5.E-15,-15.));
#121 = LINE('',#122,#123);
#122 = CARTESIAN_POINT('',(102.,-4.88E-15,-15.));
#123 = VECTOR('',#124,1.);
#124 = DIRECTION('',(-1.,-0.,-0.));
#125 = ORIENTED_EDGE('',*,*,#126,.F.);
#126 = EDGE_CURVE('',#127,#119,#129,.T.);
#127 = VERTEX_POINT('',#128);
#128 = CARTESIAN_POINT('',(102.,-8.E-15,-35.));
#129 = LINE('',#130,#131);
#130 = CARTESIAN_POINT('',(102.,-7.77E-15,-35.));
#131 = VECTOR('',#132,1.);
#132 = DIRECTION('',(0.,2.2E-16,1.));
#133 = ORIENTED_EDGE('',*,*,#134,.F.);
#134 = EDGE_CURVE('',#135,#127,#137,.T.);
#135 = VERTEX_POINT('',#136);
#136 = CARTESIAN_POINT('',(100.,-8.E-15,-37.));
#137 = CIRCLE('',#138,2.);
#138 = AXIS2_PLACEMENT_3D('',#139,#140,#141);
#139 = CARTESIAN_POINT('',(100.,-7.77E-15,-35.));
#140 = DIRECTION('',(0.,-1.,2.2E-16));
#141 = DIRECTION('',(-1.,-2.42E-32,-1.1E-16));
#142 = ORIENTED_EDGE('',*,*,#143,.F.);
#143 = EDGE_CURVE('',#144,#135,#146,.T.);
#144 = VERTEX_POINT('',#145);
#145 = CARTESIAN_POINT('',(20.,-8.E-15,-37.));
#146 = LINE('',#147,#148);
#147 = CARTESIAN_POINT('',(-100.,-8.22E-15,-37.));
#148 = VECTOR('',#149,1.);
#149 = DIRECTION('',(1.,0.,0.));
#150 = ORIENTED_EDGE('',*,*,#151,.T.);
#151 = EDGE_CURVE('',#144,#152,#154,.T.);
#152 = VERTEX_POINT('',#153);
#153 = CARTESIAN_POINT('',(20.,-8.E-15,-67.));
#154 = LINE('',#155,#156);
#155 = CARTESIAN_POINT('',(20.,-8.22E-15,-37.));
#156 = VECTOR('',#157,1.);
#157 = DIRECTION('',(0.,0.,-1.));
#158 = ORIENTED_EDGE('',*,*,#159,.F.);
#159 = EDGE_CURVE('',#160,#152,#162,.T.);
#160 = VERTEX_POINT('',#161);
#161 = CARTESIAN_POINT('',(-20.,-8.E-15,-67.));
#162 = LINE('',#163,#164);
#163 = CARTESIAN_POINT('',(-20.,-8.E-15,-67.));
#164 = VECTOR('',#165,1.);
#165 = DIRECTION('',(1.,0.,0.));
#166 = ORIENTED_EDGE('',*,*,#167,.F.);
#167 = EDGE_CURVE('',#168,#160,#170,.T.);
#168 = VERTEX_POINT('',#169);
#169 = CARTESIAN_POINT('',(-20.,-8.E-15,-37.));
#170 = LINE('',#171,#172);
#171 = CARTESIAN_POINT('',(-20.,-8.22E-15,-37.));
#172 = VECTOR('',#173,1.);
#173 = DIRECTION('',(0.,0.,-1.));
#174 = ORIENTED_EDGE('',*,*,#175,.F.);
#175 = EDGE_CURVE('',#176,#168,#178,.T.);
#176 = VERTEX_POINT('',#177);
#177 = CARTESIAN_POINT('',(-100.,-8.E-15,-37.));
#178 = LINE('',#179,#180);
#179 = CARTESIAN_POINT('',(-100.,-8.22E-15,-37.));
#180 = VECTOR('',#181,1.);
#181 = DIRECTION('',(1.,0.,0.));
#182 = ORIENTED_EDGE('',*,*,#183,.F.);
#183 = EDGE_CURVE('',#184,#176,#186,.T.);
#184 = VERTEX_POINT('',#185);
#185 = CARTESIAN_POINT('',(-102.,-8.E-15,-35.));
#186 = CIRCLE('',#187,2.);
#187 = AXIS2_PLACEMENT_3D('',#188,#189,#190);
#188 = CARTESIAN_POINT('',(-100.,-7.77E-15,-35.));
#189 = DIRECTION('',(0.,-1.,2.2E-16));
#190 = DIRECTION('',(-1.1E-16,2.2E-16,1.));
#191 = ORIENTED_EDGE('',*,*,#192,.F.);
#192 = EDGE_CURVE('',#193,#184,#195,.T.);
#193 = VERTEX_POINT('',#194);
#194 = CARTESIAN_POINT('',(-102.,8.E-15,35.));
#195 = LINE('',#196,#197);
#196 = CARTESIAN_POINT('',(-102.,7.77E-15,35.));
#197 = VECTOR('',#198,1.);
#198 = DIRECTION('',(0.,-2.2E-16,-1.));
#199 = ORIENTED_EDGE('',*,*,#200,.T.);
#200 = EDGE_CURVE('',#193,#201,#203,.T.);
#201 = VERTEX_POINT('',#202);
#202 = CARTESIAN_POINT('',(-100.,8.E-15,37.));
#203 = CIRCLE('',#204,2.);
#204 = AXIS2_PLACEMENT_3D('',#205,#206,#207);
#205 = CARTESIAN_POINT('',(-100.,7.77E-15,35.));
#206 = DIRECTION('',(0.,1.,-2.2E-16));
#207 = DIRECTION('',(-1.1E-16,-2.2E-16,-1.));
#208 = ORIENTED_EDGE('',*,*,#209,.F.);
#209 = EDGE_CURVE('',#210,#201,#212,.T.);
#210 = VERTEX_POINT('',#211);
#211 = CARTESIAN_POINT('',(-20.,8.E-15,37.));
#212 = LINE('',#213,#214);
#213 = CARTESIAN_POINT('',(100.,8.22E-15,37.));
#214 = VECTOR('',#215,1.);
#215 = DIRECTION('',(-1.,0.,0.));
#216 = ORIENTED_EDGE('',*,*,#217,.T.);
#217 = EDGE_CURVE('',#210,#218,#220,.T.);
#218 = VERTEX_POINT('',#219);
#219 = CARTESIAN_POINT('',(-20.,8.E-15,67.));
#220 = LINE('',#221,#222);
#221 = CARTESIAN_POINT('',(-20.,8.22E-15,37.));
#222 = VECTOR('',#223,1.);
#223 = DIRECTION('',(0.,0.,1.));
#224 = ORIENTED_EDGE('',*,*,#225,.F.);
#225 = EDGE_CURVE('',#226,#218,#228,.T.);
#226 = VERTEX_POINT('',#227);
#227 = CARTESIAN_POINT('',(20.,8.E-15,67.));
#228 = LINE('',#229,#230);
#229 = CARTESIAN_POINT('',(20.,8.E-15,67.));
#230 = VECTOR('',#231,1.);
#231 = DIRECTION('',(-1.,0.,0.));
#232 = ORIENTED_EDGE('',*,*,#233,.F.);
#233 = EDGE_CURVE('',#234,#226,#236,.T.);
#234 = VERTEX_POINT('',#235);
#235 = CARTESIAN_POINT('',(20.,8.E-15,37.));
#236 = LINE('',#237,#238);
#237 = CARTESIAN_POINT('',(20.,8.22E-15,37.));
#238 = VECTOR('',#239,1.);
#239 = DIRECTION('',(0.,0.,1.));
#240 = ORIENTED_EDGE('',*,*,#241,.F.);
#241 = EDGE_CURVE('',#242,#234,#244,.T.);
#242 = VERTEX_POINT('',#243);
#243 = CARTESIAN_POINT('',(100.,8.E-15,37.));
#244 = LINE('',#245,#246);
#245 = CARTESIAN_POINT('',(100.,8.22E-15,37.));
#246 = VECTOR('',#247,1.);
#247 = DIRECTION('',(-1.,0.,0.));
#248 = ORIENTED_EDGE('',*,*,#249,.F.);
#249 = EDGE_CURVE('',#250,#242,#252,.T.);
#250 = VERTEX_POINT('',#251);
#251 = CARTESIAN_POINT('',(102.,8.E-15,35.));
#252 = CIRCLE('',#253,2.);
#253 = AXIS2_PLACEMENT_3D('',#254,#255,#256);
#254 = CARTESIAN_POINT('',(100.,7.77E-15,35.));
#255 = DIRECTION('',(0.,-1.,2.2E-16));
#256 = DIRECTION('',(1.1E-16,-2.2E-16,-1.));
#257 = ORIENTED_EDGE('',*,*,#258,.F.);
#258 = EDGE_CURVE('',#259,#250,#261,.T.);
#259 = VERTEX_POINT('',#260);
#260 = CARTESIAN_POINT('',(102.,-5.E-15,0.));
#261 = LINE('',#262,#263);
#262 = CARTESIAN_POINT('',(102.,-7.77E-15,-35.));
#263 = VECTOR('',#264,1.);
#264 = DIRECTION('',(0.,2.2E-16,1.));
#265 = ORIENTED_EDGE('',*,*,#266,.T.);
#266 = EDGE_CURVE('',#259,#267,#269,.T.);
#267 = VERTEX_POINT('',#268);
#268 = CARTESIAN_POINT('',(100.,-5.E-15,0.));
#269 = LINE('',#270,#271);
#270 = CARTESIAN_POINT('',(102.,-4.88E-15,0.));
#271 = VECTOR('',#272,1.);
#272 = DIRECTION('',(-1.,-0.,-0.));
#273 = ORIENTED_EDGE('',*,*,#274,.T.);
#274 = EDGE_CURVE('',#267,#94,#275,.T.);
#275 = LINE('',#276,#277);
#276 = CARTESIAN_POINT('',(100.,0.,-35.));
#277 = VECTOR('',#278,1.);
#278 = DIRECTION('',(0.,0.,1.));
#279 = FACE_BOUND('',#280,.T.);
#280 = EDGE_LOOP('',(#281));
#281 = ORIENTED_EDGE('',*,*,#282,.T.);
#282 = EDGE_CURVE('',#283,#283,#285,.T.);
#283 = VERTEX_POINT('',#284);
#284 = CARTESIAN_POINT('',(12.25,0.,-52.));
#285 = CIRCLE('',#286,12.25);
#286 = AXIS2_PLACEMENT_3D('',#287,#288,#289);
#287 = CARTESIAN_POINT('',(0.,0.,-52.));
#288 = DIRECTION('',(0.,-1.,2.2E-16));
#289 = DIRECTION('',(1.,0.,0.));
#290 = FACE_BOUND('',#291,.T.);
#291 = EDGE_LOOP('',(#292));
#292 = ORIENTED_EDGE('',*,*,#293,.T.);
#293 = EDGE_CURVE('',#294,#294,#296,.T.);
#294 = VERTEX_POINT('',#295);
#295 = CARTESIAN_POINT('',(12.25,0.,52.));
#296 = CIRCLE('',#297,12.25);
#297 = AXIS2_PLACEMENT_3D('',#298,#299,#300);
#298 = CARTESIAN_POINT('',(0.,0.,52.));
#299 = DIRECTION('',(0.,-1.,2.2E-16));
#300 = DIRECTION('',(1.,0.,0.));
#301 = PLANE('',#302);
#302 = AXIS2_PLACEMENT_3D('',#303,#304,#305);
#303 = CARTESIAN_POINT('',(-2.213375250341,3.E-17,0.164359548293));
#304 = DIRECTION('',(0.,1.,0.));
#305 = DIRECTION('',(0.,0.,1.));
#306 = ADVANCED_FACE('',(#307),#325,.T.);
#307 = FACE_BOUND('',#308,.T.);
#308 = EDGE_LOOP('',(#309,#310,#311,#319));
#309 = ORIENTED_EDGE('',*,*,#102,.F.);
#310 = ORIENTED_EDGE('',*,*,#79,.T.);
#311 = ORIENTED_EDGE('',*,*,#312,.F.);
#312 = EDGE_CURVE('',#313,#72,#315,.T.);
#313 = VERTEX_POINT('',#314);
#314 = CARTESIAN_POINT('',(100.,-21.99,-35.));
#315 = LINE('',#316,#317);
#316 = CARTESIAN_POINT('',(100.,-21.99,-35.));
#317 = VECTOR('',#318,1.);
#318 = DIRECTION('',(-1.,0.,-4.E-17));
#319 = ORIENTED_EDGE('',*,*,#320,.F.);
#320 = EDGE_CURVE('',#103,#313,#321,.T.);
#321 = LINE('',#322,#323);
#322 = CARTESIAN_POINT('',(100.,-7.77E-15,-35.));
#323 = VECTOR('',#324,1.);
#324 = DIRECTION('',(0.,-1.,2.2E-16));
#325 = PLANE('',#326);
#326 = AXIS2_PLACEMENT_3D('',#327,#328,#329);
#327 = CARTESIAN_POINT('',(-100.,-7.77E-15,-35.));
#328 = DIRECTION('',(0.,2.2E-16,1.));
#329 = DIRECTION('',(1.,0.,0.));
#330 = ADVANCED_FACE('',(#331),#349,.T.);
#331 = FACE_BOUND('',#332,.T.);
#332 = EDGE_LOOP('',(#333,#334,#335,#343));
#333 = ORIENTED_EDGE('',*,*,#312,.T.);
#334 = ORIENTED_EDGE('',*,*,#71,.T.);
#335 = ORIENTED_EDGE('',*,*,#336,.T.);
#336 = EDGE_CURVE('',#64,#337,#339,.T.);
#337 = VERTEX_POINT('',#338);
#338 = CARTESIAN_POINT('',(100.,-21.99,-34.));
#339 = LINE('',#340,#341);
#340 = CARTESIAN_POINT('',(-100.,-21.99,-34.));
#341 = VECTOR('',#342,1.);
#342 = DIRECTION('',(1.,0.,0.));
#343 = ORIENTED_EDGE('',*,*,#344,.T.);
#344 = EDGE_CURVE('',#337,#313,#345,.T.);
#345 = LINE('',#346,#347);
#346 = CARTESIAN_POINT('',(100.,-21.99,-34.));
#347 = VECTOR('',#348,1.);
#348 = DIRECTION('',(0.,0.,-1.));
#349 = PLANE('',#350);
#350 = AXIS2_PLACEMENT_3D('',#351,#352,#353);
#351 = CARTESIAN_POINT('',(0.,-21.99,7.93E-15));
#352 = DIRECTION('',(0.,1.,0.));
#353 = DIRECTION('',(0.,0.,1.));
#354 = ADVANCED_FACE('',(#355),#373,.F.);
#355 = FACE_BOUND('',#356,.F.);
#356 = EDGE_LOOP('',(#357,#358,#359,#367));
#357 = ORIENTED_EDGE('',*,*,#63,.T.);
#358 = ORIENTED_EDGE('',*,*,#336,.T.);
#359 = ORIENTED_EDGE('',*,*,#360,.F.);
#360 = EDGE_CURVE('',#361,#337,#363,.T.);
#361 = VERTEX_POINT('',#362);
#362 = CARTESIAN_POINT('',(100.,-22.,-34.));
#363 = LINE('',#364,#365);
#364 = CARTESIAN_POINT('',(100.,-22.,-34.));
#365 = VECTOR('',#366,1.);
#366 = DIRECTION('',(0.,1.,-2.2E-16));
#367 = ORIENTED_EDGE('',*,*,#368,.F.);
#368 = EDGE_CURVE('',#56,#361,#369,.T.);
#369 = LINE('',#370,#371);
#370 = CARTESIAN_POINT('',(-100.,-22.,-34.));
#371 = VECTOR('',#372,1.);
#372 = DIRECTION('',(1.,0.,0.));
#373 = PLANE('',#374);
#374 = AXIS2_PLACEMENT_3D('',#375,#376,#377);
#375 = CARTESIAN_POINT('',(-100.,-22.,-34.));
#376 = DIRECTION('',(0.,-2.2E-16,-1.));
#377 = DIRECTION('',(1.,0.,0.));
#378 = ADVANCED_FACE('',(#379,#397,#431),#465,.T.);
#379 = FACE_BOUND('',#380,.T.);
#380 = EDGE_LOOP('',(#381,#382,#390,#396));
#381 = ORIENTED_EDGE('',*,*,#55,.F.);
#382 = ORIENTED_EDGE('',*,*,#383,.T.);
#383 = EDGE_CURVE('',#48,#384,#386,.T.);
#384 = VERTEX_POINT('',#385);
#385 = CARTESIAN_POINT('',(100.,-22.,34.));
#386 = LINE('',#387,#388);
#387 = CARTESIAN_POINT('',(-100.,-22.,34.));
#388 = VECTOR('',#389,1.);
#389 = DIRECTION('',(1.,0.,0.));
#390 = ORIENTED_EDGE('',*,*,#391,.F.);
#391 = EDGE_CURVE('',#361,#384,#392,.T.);
#392 = LINE('',#393,#394);
#393 = CARTESIAN_POINT('',(100.,-22.,-35.));
#394 = VECTOR('',#395,1.);
#395 = DIRECTION('',(0.,0.,1.));
#396 = ORIENTED_EDGE('',*,*,#368,.F.);
#397 = FACE_BOUND('',#398,.T.);
#398 = EDGE_LOOP('',(#399,#409,#417,#425));
#399 = ORIENTED_EDGE('',*,*,#400,.F.);
#400 = EDGE_CURVE('',#401,#403,#405,.T.);
#401 = VERTEX_POINT('',#402);
#402 = CARTESIAN_POINT('',(25.,-22.,-27.5));
#403 = VERTEX_POINT('',#404);
#404 = CARTESIAN_POINT('',(25.,-22.,-22.5));
#405 = LINE('',#406,#407);
#406 = CARTESIAN_POINT('',(25.,-22.,-27.5));
#407 = VECTOR('',#408,1.);
#408 = DIRECTION('',(0.,0.,1.));
#409 = ORIENTED_EDGE('',*,*,#410,.F.);
#410 = EDGE_CURVE('',#411,#401,#413,.T.);
#411 = VERTEX_POINT('',#412);
#412 = CARTESIAN_POINT('',(30.,-22.,-27.5));
#413 = LINE('',#414,#415);
#414 = CARTESIAN_POINT('',(30.,-22.,-27.5));
#415 = VECTOR('',#416,1.);
#416 = DIRECTION('',(-1.,0.,0.));
#417 = ORIENTED_EDGE('',*,*,#418,.F.);
#418 = EDGE_CURVE('',#419,#411,#421,.T.);
#419 = VERTEX_POINT('',#420);
#420 = CARTESIAN_POINT('',(30.,-22.,-22.5));
#421 = LINE('',#422,#423);
#422 = CARTESIAN_POINT('',(30.,-22.,-22.5));
#423 = VECTOR('',#424,1.);
#424 = DIRECTION('',(0.,0.,-1.));
#425 = ORIENTED_EDGE('',*,*,#426,.F.);
#426 = EDGE_CURVE('',#403,#419,#427,.T.);
#427 = LINE('',#428,#429);
#428 = CARTESIAN_POINT('',(25.,-22.,-22.5));
#429 = VECTOR('',#430,1.);
#430 = DIRECTION('',(1.,0.,0.));
#431 = FACE_BOUND('',#432,.T.);
#432 = EDGE_LOOP('',(#433,#443,#451,#459));
#433 = ORIENTED_EDGE('',*,*,#434,.F.);
#434 = EDGE_CURVE('',#435,#437,#439,.T.);
#435 = VERTEX_POINT('',#436);
#436 = CARTESIAN_POINT('',(25.,-22.,27.5));
#437 = VERTEX_POINT('',#438);
#438 = CARTESIAN_POINT('',(30.,-22.,27.5));
#439 = LINE('',#440,#441);
#440 = CARTESIAN_POINT('',(25.,-22.,27.5));
#441 = VECTOR('',#442,1.);
#442 = DIRECTION('',(1.,0.,0.));
#443 = ORIENTED_EDGE('',*,*,#444,.F.);
#444 = EDGE_CURVE('',#445,#435,#447,.T.);
#445 = VERTEX_POINT('',#446);
#446 = CARTESIAN_POINT('',(25.,-22.,22.5));
#447 = LINE('',#448,#449);
#448 = CARTESIAN_POINT('',(25.,-22.,22.5));
#449 = VECTOR('',#450,1.);
#450 = DIRECTION('',(0.,0.,1.));
#451 = ORIENTED_EDGE('',*,*,#452,.F.);
#452 = EDGE_CURVE('',#453,#445,#455,.T.);
#453 = VERTEX_POINT('',#454);
#454 = CARTESIAN_POINT('',(30.,-22.,22.5));
#455 = LINE('',#456,#457);
#456 = CARTESIAN_POINT('',(30.,-22.,22.5));
#457 = VECTOR('',#458,1.);
#458 = DIRECTION('',(-1.,0.,0.));
#459 = ORIENTED_EDGE('',*,*,#460,.F.);
#460 = EDGE_CURVE('',#437,#453,#461,.T.);
#461 = LINE('',#462,#463);
#462 = CARTESIAN_POINT('',(30.,-22.,27.5));
#463 = VECTOR('',#464,1.);
#464 = DIRECTION('',(0.,0.,-1.));
#465 = PLANE('',#466);
#466 = AXIS2_PLACEMENT_3D('',#467,#468,#469);
#467 = CARTESIAN_POINT('',(0.,-22.,5.E-15));
#468 = DIRECTION('',(0.,1.,0.));
#469 = DIRECTION('',(0.,0.,1.));
#470 = ADVANCED_FACE('',(#471),#489,.T.);
#471 = FACE_BOUND('',#472,.T.);
#472 = EDGE_LOOP('',(#473,#474,#482,#488));
#473 = ORIENTED_EDGE('',*,*,#47,.T.);
#474 = ORIENTED_EDGE('',*,*,#475,.T.);
#475 = EDGE_CURVE('',#40,#476,#478,.T.);
#476 = VERTEX_POINT('',#477);
#477 = CARTESIAN_POINT('',(100.,-21.99,34.));
#478 = LINE('',#479,#480);
#479 = CARTESIAN_POINT('',(-100.,-21.99,34.));
#480 = VECTOR('',#481,1.);
#481 = DIRECTION('',(1.,0.,0.));
#482 = ORIENTED_EDGE('',*,*,#483,.F.);
#483 = EDGE_CURVE('',#384,#476,#484,.T.);
#484 = LINE('',#485,#486);
#485 = CARTESIAN_POINT('',(100.,-22.,34.));
#486 = VECTOR('',#487,1.);
#487 = DIRECTION('',(0.,1.,-2.2E-16));
#488 = ORIENTED_EDGE('',*,*,#383,.F.);
#489 = PLANE('',#490);
#490 = AXIS2_PLACEMENT_3D('',#491,#492,#493);
#491 = CARTESIAN_POINT('',(-100.,-22.,34.));
#492 = DIRECTION('',(0.,-2.2E-16,-1.));
#493 = DIRECTION('',(1.,0.,0.));
#494 = ADVANCED_FACE('',(#495),#513,.T.);
#495 = FACE_BOUND('',#496,.F.);
#496 = EDGE_LOOP('',(#497,#505,#506,#507));
#497 = ORIENTED_EDGE('',*,*,#498,.T.);
#498 = EDGE_CURVE('',#499,#32,#501,.T.);
#499 = VERTEX_POINT('',#500);
#500 = CARTESIAN_POINT('',(100.,-21.99,35.));
#501 = LINE('',#502,#503);
#502 = CARTESIAN_POINT('',(100.,-21.99,35.));
#503 = VECTOR('',#504,1.);
#504 = DIRECTION('',(-1.,0.,0.));
#505 = ORIENTED_EDGE('',*,*,#39,.T.);
#506 = ORIENTED_EDGE('',*,*,#475,.T.);
#507 = ORIENTED_EDGE('',*,*,#508,.T.);
#508 = EDGE_CURVE('',#476,#499,#509,.T.);
#509 = LINE('',#510,#511);
#510 = CARTESIAN_POINT('',(100.,-21.99,34.));
#511 = VECTOR('',#512,1.);
#512 = DIRECTION('',(0.,0.,1.));
#513 = PLANE('',#514);
#514 = AXIS2_PLACEMENT_3D('',#515,#516,#517);
#515 = CARTESIAN_POINT('',(0.,-21.99,7.93E-15));
#516 = DIRECTION('',(0.,1.,0.));
#517 = DIRECTION('',(0.,0.,1.));
#518 = ADVANCED_FACE('',(#519),#530,.T.);
#519 = FACE_BOUND('',#520,.T.);
#520 = EDGE_LOOP('',(#521,#522,#528,#529));
#521 = ORIENTED_EDGE('',*,*,#93,.F.);
#522 = ORIENTED_EDGE('',*,*,#523,.T.);
#523 = EDGE_CURVE('',#94,#499,#524,.T.);
#524 = LINE('',#525,#526);
#525 = CARTESIAN_POINT('',(100.,7.77E-15,35.));
#526 = VECTOR('',#527,1.);
#527 = DIRECTION('',(0.,-1.,2.2E-16));
#528 = ORIENTED_EDGE('',*,*,#498,.T.);
#529 = ORIENTED_EDGE('',*,*,#31,.F.);
#530 = PLANE('',#531);
#531 = AXIS2_PLACEMENT_3D('',#532,#533,#534);
#532 = CARTESIAN_POINT('',(100.,7.77E-15,35.));
#533 = DIRECTION('',(-0.,-2.2E-16,-1.));
#534 = DIRECTION('',(-1.,0.,0.));
#535 = ADVANCED_FACE('',(#536),#569,.T.);
#536 = FACE_BOUND('',#537,.T.);
#537 = EDGE_LOOP('',(#538,#539,#540,#541,#542,#543,#544,#545,#546,#547,
    #555,#563));
#538 = ORIENTED_EDGE('',*,*,#110,.F.);
#539 = ORIENTED_EDGE('',*,*,#320,.T.);
#540 = ORIENTED_EDGE('',*,*,#344,.F.);
#541 = ORIENTED_EDGE('',*,*,#360,.F.);
#542 = ORIENTED_EDGE('',*,*,#391,.T.);
#543 = ORIENTED_EDGE('',*,*,#483,.T.);
#544 = ORIENTED_EDGE('',*,*,#508,.T.);
#545 = ORIENTED_EDGE('',*,*,#523,.F.);
#546 = ORIENTED_EDGE('',*,*,#274,.F.);
#547 = ORIENTED_EDGE('',*,*,#548,.T.);
#548 = EDGE_CURVE('',#267,#549,#551,.T.);
#549 = VERTEX_POINT('',#550);
#550 = CARTESIAN_POINT('',(100.,-3.6,0.));
#551 = LINE('',#552,#553);
#552 = CARTESIAN_POINT('',(100.,-6.33E-15,0.));
#553 = VECTOR('',#554,1.);
#554 = DIRECTION('',(0.,-1.,0.));
#555 = ORIENTED_EDGE('',*,*,#556,.T.);
#556 = EDGE_CURVE('',#549,#557,#559,.T.);
#557 = VERTEX_POINT('',#558);
#558 = CARTESIAN_POINT('',(100.,-3.6,-15.));
#559 = LINE('',#560,#561);
#560 = CARTESIAN_POINT('',(100.,-3.6,-17.5));
#561 = VECTOR('',#562,1.);
#562 = DIRECTION('',(-0.,-0.,-1.));
#563 = ORIENTED_EDGE('',*,*,#564,.T.);
#564 = EDGE_CURVE('',#557,#111,#565,.T.);
#565 = LINE('',#566,#567);
#566 = CARTESIAN_POINT('',(100.,-1.8,-15.));
#567 = VECTOR('',#568,1.);
#568 = DIRECTION('',(0.,1.,0.));
#569 = PLANE('',#570);
#570 = AXIS2_PLACEMENT_3D('',#571,#572,#573);
#571 = CARTESIAN_POINT('',(100.,-7.77E-15,-35.));
#572 = DIRECTION('',(-1.,0.,0.));
#573 = DIRECTION('',(0.,2.2E-16,1.));
#574 = ADVANCED_FACE('',(#575),#593,.F.);
#575 = FACE_BOUND('',#576,.F.);
#576 = EDGE_LOOP('',(#577,#585,#586,#587));
#577 = ORIENTED_EDGE('',*,*,#578,.F.);
#578 = EDGE_CURVE('',#259,#579,#581,.T.);
#579 = VERTEX_POINT('',#580);
#580 = CARTESIAN_POINT('',(102.,-3.6,0.));
#581 = LINE('',#582,#583);
#582 = CARTESIAN_POINT('',(102.,-4.88E-15,0.));
#583 = VECTOR('',#584,1.);
#584 = DIRECTION('',(0.,-1.,0.));
#585 = ORIENTED_EDGE('',*,*,#266,.T.);
#586 = ORIENTED_EDGE('',*,*,#548,.T.);
#587 = ORIENTED_EDGE('',*,*,#588,.F.);
#588 = EDGE_CURVE('',#579,#549,#589,.T.);
#589 = LINE('',#590,#591);
#590 = CARTESIAN_POINT('',(102.,-3.6,0.));
#591 = VECTOR('',#592,1.);
#592 = DIRECTION('',(-1.,-0.,-0.));
#593 = PLANE('',#594);
#594 = AXIS2_PLACEMENT_3D('',#595,#596,#597);
#595 = CARTESIAN_POINT('',(102.,-4.88E-15,0.));
#596 = DIRECTION('',(0.,0.,1.));
#597 = DIRECTION('',(0.,-1.,0.));
#598 = ADVANCED_FACE('',(#599),#640,.F.);
#599 = FACE_BOUND('',#600,.F.);
#600 = EDGE_LOOP('',(#601,#611,#617,#618,#619,#627,#633,#634));
#601 = ORIENTED_EDGE('',*,*,#602,.T.);
#602 = EDGE_CURVE('',#603,#605,#607,.T.);
#603 = VERTEX_POINT('',#604);
#604 = CARTESIAN_POINT('',(102.,-22.,-35.));
#605 = VERTEX_POINT('',#606);
#606 = CARTESIAN_POINT('',(102.,-22.,35.));
#607 = LINE('',#608,#609);
#608 = CARTESIAN_POINT('',(102.,-22.,-35.));
#609 = VECTOR('',#610,1.);
#610 = DIRECTION('',(0.,2.2E-16,1.));
#611 = ORIENTED_EDGE('',*,*,#612,.F.);
#612 = EDGE_CURVE('',#250,#605,#613,.T.);
#613 = LINE('',#614,#615);
#614 = CARTESIAN_POINT('',(102.,7.77E-15,35.));
#615 = VECTOR('',#616,1.);
#616 = DIRECTION('',(0.,-1.,2.2E-16));
#617 = ORIENTED_EDGE('',*,*,#258,.F.);
#618 = ORIENTED_EDGE('',*,*,#578,.T.);
#619 = ORIENTED_EDGE('',*,*,#620,.T.);
#620 = EDGE_CURVE('',#579,#621,#623,.T.);
#621 = VERTEX_POINT('',#622);
#622 = CARTESIAN_POINT('',(102.,-3.6,-15.));
#623 = LINE('',#624,#625);
#624 = CARTESIAN_POINT('',(102.,-3.6,0.));
#625 = VECTOR('',#626,1.);
#626 = DIRECTION('',(0.,0.,-1.));
#627 = ORIENTED_EDGE('',*,*,#628,.T.);
#628 = EDGE_CURVE('',#621,#119,#629,.T.);
#629 = LINE('',#630,#631);
#630 = CARTESIAN_POINT('',(102.,-3.6,-15.));
#631 = VECTOR('',#632,1.);
#632 = DIRECTION('',(0.,1.,0.));
#633 = ORIENTED_EDGE('',*,*,#126,.F.);
#634 = ORIENTED_EDGE('',*,*,#635,.T.);
#635 = EDGE_CURVE('',#127,#603,#636,.T.);
#636 = LINE('',#637,#638);
#637 = CARTESIAN_POINT('',(102.,-7.77E-15,-35.));
#638 = VECTOR('',#639,1.);
#639 = DIRECTION('',(0.,-1.,2.2E-16));
#640 = PLANE('',#641);
#641 = AXIS2_PLACEMENT_3D('',#642,#643,#644);
#642 = CARTESIAN_POINT('',(102.,-7.77E-15,-35.));
#643 = DIRECTION('',(-1.,0.,0.));
#644 = DIRECTION('',(0.,2.2E-16,1.));
#645 = ADVANCED_FACE('',(#646),#665,.T.);
#646 = FACE_BOUND('',#647,.T.);
#647 = EDGE_LOOP('',(#648,#656,#663,#664));
#648 = ORIENTED_EDGE('',*,*,#649,.T.);
#649 = EDGE_CURVE('',#242,#650,#652,.T.);
#650 = VERTEX_POINT('',#651);
#651 = CARTESIAN_POINT('',(100.,-22.,37.));
#652 = LINE('',#653,#654);
#653 = CARTESIAN_POINT('',(100.,8.22E-15,37.));
#654 = VECTOR('',#655,1.);
#655 = DIRECTION('',(0.,-1.,2.2E-16));
#656 = ORIENTED_EDGE('',*,*,#657,.F.);
#657 = EDGE_CURVE('',#605,#650,#658,.T.);
#658 = CIRCLE('',#659,2.);
#659 = AXIS2_PLACEMENT_3D('',#660,#661,#662);
#660 = CARTESIAN_POINT('',(100.,-22.,35.));
#661 = DIRECTION('',(0.,-1.,2.2E-16));
#662 = DIRECTION('',(1.1E-16,-2.2E-16,-1.));
#663 = ORIENTED_EDGE('',*,*,#612,.F.);
#664 = ORIENTED_EDGE('',*,*,#249,.T.);
#665 = CYLINDRICAL_SURFACE('',#666,2.);
#666 = AXIS2_PLACEMENT_3D('',#667,#668,#669);
#667 = CARTESIAN_POINT('',(100.,7.77E-15,35.));
#668 = DIRECTION('',(0.,-1.,2.2E-16));
#669 = DIRECTION('',(1.1E-16,-2.2E-16,-1.));
#670 = ADVANCED_FACE('',(#671),#682,.F.);
#671 = FACE_BOUND('',#672,.F.);
#672 = EDGE_LOOP('',(#673,#674,#680,#681));
#673 = ORIENTED_EDGE('',*,*,#628,.F.);
#674 = ORIENTED_EDGE('',*,*,#675,.T.);
#675 = EDGE_CURVE('',#621,#557,#676,.T.);
#676 = LINE('',#677,#678);
#677 = CARTESIAN_POINT('',(102.,-3.6,-15.));
#678 = VECTOR('',#679,1.);
#679 = DIRECTION('',(-1.,-0.,-0.));
#680 = ORIENTED_EDGE('',*,*,#564,.T.);
#681 = ORIENTED_EDGE('',*,*,#118,.F.);
#682 = PLANE('',#683);
#683 = AXIS2_PLACEMENT_3D('',#684,#685,#686);
#684 = CARTESIAN_POINT('',(102.,-3.6,-15.));
#685 = DIRECTION('',(0.,0.,-1.));
#686 = DIRECTION('',(0.,1.,0.));
#687 = ADVANCED_FACE('',(#688),#706,.F.);
#688 = FACE_BOUND('',#689,.F.);
#689 = EDGE_LOOP('',(#690,#691,#692,#700));
#690 = ORIENTED_EDGE('',*,*,#241,.F.);
#691 = ORIENTED_EDGE('',*,*,#649,.T.);
#692 = ORIENTED_EDGE('',*,*,#693,.T.);
#693 = EDGE_CURVE('',#650,#694,#696,.T.);
#694 = VERTEX_POINT('',#695);
#695 = CARTESIAN_POINT('',(20.,-22.,37.));
#696 = LINE('',#697,#698);
#697 = CARTESIAN_POINT('',(100.,-22.,37.));
#698 = VECTOR('',#699,1.);
#699 = DIRECTION('',(-1.,0.,0.));
#700 = ORIENTED_EDGE('',*,*,#701,.T.);
#701 = EDGE_CURVE('',#694,#234,#702,.T.);
#702 = LINE('',#703,#704);
#703 = CARTESIAN_POINT('',(20.,-22.,37.));
#704 = VECTOR('',#705,1.);
#705 = DIRECTION('',(0.,1.,0.));
#706 = PLANE('',#707);
#707 = AXIS2_PLACEMENT_3D('',#708,#709,#710);
#708 = CARTESIAN_POINT('',(100.,8.22E-15,37.));
#709 = DIRECTION('',(-0.,-2.2E-16,-1.));
#710 = DIRECTION('',(-1.,0.,0.));
#711 = ADVANCED_FACE('',(#712),#730,.F.);
#712 = FACE_BOUND('',#713,.F.);
#713 = EDGE_LOOP('',(#714,#722,#728,#729));
#714 = ORIENTED_EDGE('',*,*,#715,.T.);
#715 = EDGE_CURVE('',#694,#716,#718,.T.);
#716 = VERTEX_POINT('',#717);
#717 = CARTESIAN_POINT('',(20.,-22.,67.));
#718 = LINE('',#719,#720);
#719 = CARTESIAN_POINT('',(20.,-22.,37.));
#720 = VECTOR('',#721,1.);
#721 = DIRECTION('',(0.,0.,1.));
#722 = ORIENTED_EDGE('',*,*,#723,.T.);
#723 = EDGE_CURVE('',#716,#226,#724,.T.);
#724 = LINE('',#725,#726);
#725 = CARTESIAN_POINT('',(20.,-22.,67.));
#726 = VECTOR('',#727,1.);
#727 = DIRECTION('',(0.,1.,0.));
#728 = ORIENTED_EDGE('',*,*,#233,.F.);
#729 = ORIENTED_EDGE('',*,*,#701,.F.);
#730 = PLANE('',#731);
#731 = AXIS2_PLACEMENT_3D('',#732,#733,#734);
#732 = CARTESIAN_POINT('',(20.,-22.,37.));
#733 = DIRECTION('',(-1.,0.,0.));
#734 = DIRECTION('',(0.,1.,0.));
#735 = ADVANCED_FACE('',(#736),#755,.T.);
#736 = FACE_BOUND('',#737,.T.);
#737 = EDGE_LOOP('',(#738,#739,#748,#754));
#738 = ORIENTED_EDGE('',*,*,#635,.T.);
#739 = ORIENTED_EDGE('',*,*,#740,.F.);
#740 = EDGE_CURVE('',#741,#603,#743,.T.);
#741 = VERTEX_POINT('',#742);
#742 = CARTESIAN_POINT('',(100.,-22.,-37.));
#743 = CIRCLE('',#744,2.);
#744 = AXIS2_PLACEMENT_3D('',#745,#746,#747);
#745 = CARTESIAN_POINT('',(100.,-22.,-35.));
#746 = DIRECTION('',(0.,-1.,2.2E-16));
#747 = DIRECTION('',(-1.,-2.42E-32,-1.1E-16));
#748 = ORIENTED_EDGE('',*,*,#749,.F.);
#749 = EDGE_CURVE('',#135,#741,#750,.T.);
#750 = LINE('',#751,#752);
#751 = CARTESIAN_POINT('',(100.,-8.22E-15,-37.));
#752 = VECTOR('',#753,1.);
#753 = DIRECTION('',(0.,-1.,2.2E-16));
#754 = ORIENTED_EDGE('',*,*,#134,.T.);
#755 = CYLINDRICAL_SURFACE('',#756,2.);
#756 = AXIS2_PLACEMENT_3D('',#757,#758,#759);
#757 = CARTESIAN_POINT('',(100.,-7.77E-15,-35.));
#758 = DIRECTION('',(0.,-1.,2.2E-16));
#759 = DIRECTION('',(-1.,-2.42E-32,-1.1E-16));
#760 = ADVANCED_FACE('',(#761),#779,.T.);
#761 = FACE_BOUND('',#762,.T.);
#762 = EDGE_LOOP('',(#763,#771,#777,#778));
#763 = ORIENTED_EDGE('',*,*,#764,.T.);
#764 = EDGE_CURVE('',#218,#765,#767,.T.);
#765 = VERTEX_POINT('',#766);
#766 = CARTESIAN_POINT('',(-20.,-22.,67.));
#767 = LINE('',#768,#769);
#768 = CARTESIAN_POINT('',(-20.,8.E-15,67.));
#769 = VECTOR('',#770,1.);
#770 = DIRECTION('',(0.,-1.,0.));
#771 = ORIENTED_EDGE('',*,*,#772,.T.);
#772 = EDGE_CURVE('',#765,#716,#773,.T.);
#773 = LINE('',#774,#775);
#774 = CARTESIAN_POINT('',(-20.,-22.,67.));
#775 = VECTOR('',#776,1.);
#776 = DIRECTION('',(1.,0.,0.));
#777 = ORIENTED_EDGE('',*,*,#723,.T.);
#778 = ORIENTED_EDGE('',*,*,#225,.T.);
#779 = PLANE('',#780);
#780 = AXIS2_PLACEMENT_3D('',#781,#782,#783);
#781 = CARTESIAN_POINT('',(0.,-11.,67.));
#782 = DIRECTION('',(0.,0.,1.));
#783 = DIRECTION('',(1.,0.,0.));
#784 = ADVANCED_FACE('',(#785),#803,.F.);
#785 = FACE_BOUND('',#786,.F.);
#786 = EDGE_LOOP('',(#787,#795,#796,#797));
#787 = ORIENTED_EDGE('',*,*,#788,.T.);
#788 = EDGE_CURVE('',#789,#741,#791,.T.);
#789 = VERTEX_POINT('',#790);
#790 = CARTESIAN_POINT('',(20.,-22.,-37.));
#791 = LINE('',#792,#793);
#792 = CARTESIAN_POINT('',(-100.,-22.,-37.));
#793 = VECTOR('',#794,1.);
#794 = DIRECTION('',(1.,0.,0.));
#795 = ORIENTED_EDGE('',*,*,#749,.F.);
#796 = ORIENTED_EDGE('',*,*,#143,.F.);
#797 = ORIENTED_EDGE('',*,*,#798,.T.);
#798 = EDGE_CURVE('',#144,#789,#799,.T.);
#799 = LINE('',#800,#801);
#800 = CARTESIAN_POINT('',(20.,-8.E-15,-37.));
#801 = VECTOR('',#802,1.);
#802 = DIRECTION('',(0.,-1.,0.));
#803 = PLANE('',#804);
#804 = AXIS2_PLACEMENT_3D('',#805,#806,#807);
#805 = CARTESIAN_POINT('',(-100.,-8.22E-15,-37.));
#806 = DIRECTION('',(0.,2.2E-16,1.));
#807 = DIRECTION('',(1.,0.,0.));
#808 = ADVANCED_FACE('',(#809),#827,.F.);
#809 = FACE_BOUND('',#810,.F.);
#810 = EDGE_LOOP('',(#811,#812,#813,#821));
#811 = ORIENTED_EDGE('',*,*,#217,.T.);
#812 = ORIENTED_EDGE('',*,*,#764,.T.);
#813 = ORIENTED_EDGE('',*,*,#814,.F.);
#814 = EDGE_CURVE('',#815,#765,#817,.T.);
#815 = VERTEX_POINT('',#816);
#816 = CARTESIAN_POINT('',(-20.,-22.,37.));
#817 = LINE('',#818,#819);
#818 = CARTESIAN_POINT('',(-20.,-22.,37.));
#819 = VECTOR('',#820,1.);
#820 = DIRECTION('',(0.,0.,1.));
#821 = ORIENTED_EDGE('',*,*,#822,.F.);
#822 = EDGE_CURVE('',#210,#815,#823,.T.);
#823 = LINE('',#824,#825);
#824 = CARTESIAN_POINT('',(-20.,8.E-15,37.));
#825 = VECTOR('',#826,1.);
#826 = DIRECTION('',(0.,-1.,0.));
#827 = PLANE('',#828);
#828 = AXIS2_PLACEMENT_3D('',#829,#830,#831);
#829 = CARTESIAN_POINT('',(-20.,8.22E-15,37.));
#830 = DIRECTION('',(1.,0.,0.));
#831 = DIRECTION('',(0.,-1.,0.));
#832 = ADVANCED_FACE('',(#833),#851,.F.);
#833 = FACE_BOUND('',#834,.F.);
#834 = EDGE_LOOP('',(#835,#836,#844,#850));
#835 = ORIENTED_EDGE('',*,*,#151,.T.);
#836 = ORIENTED_EDGE('',*,*,#837,.T.);
#837 = EDGE_CURVE('',#152,#838,#840,.T.);
#838 = VERTEX_POINT('',#839);
#839 = CARTESIAN_POINT('',(20.,-22.,-67.));
#840 = LINE('',#841,#842);
#841 = CARTESIAN_POINT('',(20.,-8.E-15,-67.));
#842 = VECTOR('',#843,1.);
#843 = DIRECTION('',(0.,-1.,0.));
#844 = ORIENTED_EDGE('',*,*,#845,.F.);
#845 = EDGE_CURVE('',#789,#838,#846,.T.);
#846 = LINE('',#847,#848);
#847 = CARTESIAN_POINT('',(20.,-22.,-37.));
#848 = VECTOR('',#849,1.);
#849 = DIRECTION('',(0.,0.,-1.));
#850 = ORIENTED_EDGE('',*,*,#798,.F.);
#851 = PLANE('',#852);
#852 = AXIS2_PLACEMENT_3D('',#853,#854,#855);
#853 = CARTESIAN_POINT('',(20.,-8.22E-15,-37.));
#854 = DIRECTION('',(-1.,-0.,-0.));
#855 = DIRECTION('',(0.,-1.,0.));
#856 = ADVANCED_FACE('',(#857),#875,.F.);
#857 = FACE_BOUND('',#858,.F.);
#858 = EDGE_LOOP('',(#859,#860,#861,#869));
#859 = ORIENTED_EDGE('',*,*,#209,.F.);
#860 = ORIENTED_EDGE('',*,*,#822,.T.);
#861 = ORIENTED_EDGE('',*,*,#862,.T.);
#862 = EDGE_CURVE('',#815,#863,#865,.T.);
#863 = VERTEX_POINT('',#864);
#864 = CARTESIAN_POINT('',(-100.,-22.,37.));
#865 = LINE('',#866,#867);
#866 = CARTESIAN_POINT('',(100.,-22.,37.));
#867 = VECTOR('',#868,1.);
#868 = DIRECTION('',(-1.,0.,0.));
#869 = ORIENTED_EDGE('',*,*,#870,.F.);
#870 = EDGE_CURVE('',#201,#863,#871,.T.);
#871 = LINE('',#872,#873);
#872 = CARTESIAN_POINT('',(-100.,8.22E-15,37.));
#873 = VECTOR('',#874,1.);
#874 = DIRECTION('',(0.,-1.,2.2E-16));
#875 = PLANE('',#876);
#876 = AXIS2_PLACEMENT_3D('',#877,#878,#879);
#877 = CARTESIAN_POINT('',(100.,8.22E-15,37.));
#878 = DIRECTION('',(-0.,-2.2E-16,-1.));
#879 = DIRECTION('',(-1.,0.,0.));
#880 = ADVANCED_FACE('',(#881),#899,.F.);
#881 = FACE_BOUND('',#882,.T.);
#882 = EDGE_LOOP('',(#883,#891,#892,#893));
#883 = ORIENTED_EDGE('',*,*,#884,.T.);
#884 = EDGE_CURVE('',#885,#160,#887,.T.);
#885 = VERTEX_POINT('',#886);
#886 = CARTESIAN_POINT('',(-20.,-22.,-67.));
#887 = LINE('',#888,#889);
#888 = CARTESIAN_POINT('',(-20.,-22.,-67.));
#889 = VECTOR('',#890,1.);
#890 = DIRECTION('',(0.,1.,0.));
#891 = ORIENTED_EDGE('',*,*,#159,.T.);
#892 = ORIENTED_EDGE('',*,*,#837,.T.);
#893 = ORIENTED_EDGE('',*,*,#894,.T.);
#894 = EDGE_CURVE('',#838,#885,#895,.T.);
#895 = LINE('',#896,#897);
#896 = CARTESIAN_POINT('',(20.,-22.,-67.));
#897 = VECTOR('',#898,1.);
#898 = DIRECTION('',(-1.,0.,0.));
#899 = PLANE('',#900);
#900 = AXIS2_PLACEMENT_3D('',#901,#902,#903);
#901 = CARTESIAN_POINT('',(0.,-11.,-67.));
#902 = DIRECTION('',(0.,0.,1.));
#903 = DIRECTION('',(1.,0.,0.));
#904 = ADVANCED_FACE('',(#905),#924,.T.);
#905 = FACE_BOUND('',#906,.F.);
#906 = EDGE_LOOP('',(#907,#908,#917,#923));
#907 = ORIENTED_EDGE('',*,*,#870,.T.);
#908 = ORIENTED_EDGE('',*,*,#909,.F.);
#909 = EDGE_CURVE('',#910,#863,#912,.T.);
#910 = VERTEX_POINT('',#911);
#911 = CARTESIAN_POINT('',(-102.,-22.,35.));
#912 = CIRCLE('',#913,2.);
#913 = AXIS2_PLACEMENT_3D('',#914,#915,#916);
#914 = CARTESIAN_POINT('',(-100.,-22.,35.));
#915 = DIRECTION('',(0.,1.,-2.2E-16));
#916 = DIRECTION('',(-1.1E-16,-2.2E-16,-1.));
#917 = ORIENTED_EDGE('',*,*,#918,.F.);
#918 = EDGE_CURVE('',#193,#910,#919,.T.);
#919 = LINE('',#920,#921);
#920 = CARTESIAN_POINT('',(-102.,7.77E-15,35.));
#921 = VECTOR('',#922,1.);
#922 = DIRECTION('',(0.,-1.,2.2E-16));
#923 = ORIENTED_EDGE('',*,*,#200,.T.);
#924 = CYLINDRICAL_SURFACE('',#925,2.);
#925 = AXIS2_PLACEMENT_3D('',#926,#927,#928);
#926 = CARTESIAN_POINT('',(-100.,7.77E-15,35.));
#927 = DIRECTION('',(0.,-1.,2.2E-16));
#928 = DIRECTION('',(-1.1E-16,-2.2E-16,-1.));
#929 = ADVANCED_FACE('',(#930),#948,.F.);
#930 = FACE_BOUND('',#931,.F.);
#931 = EDGE_LOOP('',(#932,#940,#941,#942));
#932 = ORIENTED_EDGE('',*,*,#933,.T.);
#933 = EDGE_CURVE('',#934,#885,#936,.T.);
#934 = VERTEX_POINT('',#935);
#935 = CARTESIAN_POINT('',(-20.,-22.,-37.));
#936 = LINE('',#937,#938);
#937 = CARTESIAN_POINT('',(-20.,-22.,-37.));
#938 = VECTOR('',#939,1.);
#939 = DIRECTION('',(0.,0.,-1.));
#940 = ORIENTED_EDGE('',*,*,#884,.T.);
#941 = ORIENTED_EDGE('',*,*,#167,.F.);
#942 = ORIENTED_EDGE('',*,*,#943,.F.);
#943 = EDGE_CURVE('',#934,#168,#944,.T.);
#944 = LINE('',#945,#946);
#945 = CARTESIAN_POINT('',(-20.,-22.,-37.));
#946 = VECTOR('',#947,1.);
#947 = DIRECTION('',(0.,1.,0.));
#948 = PLANE('',#949);
#949 = AXIS2_PLACEMENT_3D('',#950,#951,#952);
#950 = CARTESIAN_POINT('',(-20.,-22.,-37.));
#951 = DIRECTION('',(1.,0.,0.));
#952 = DIRECTION('',(0.,1.,0.));
#953 = ADVANCED_FACE('',(#954),#972,.F.);
#954 = FACE_BOUND('',#955,.F.);
#955 = EDGE_LOOP('',(#956,#957,#965,#971));
#956 = ORIENTED_EDGE('',*,*,#918,.T.);
#957 = ORIENTED_EDGE('',*,*,#958,.T.);
#958 = EDGE_CURVE('',#910,#959,#961,.T.);
#959 = VERTEX_POINT('',#960);
#960 = CARTESIAN_POINT('',(-102.,-22.,-35.));
#961 = LINE('',#962,#963);
#962 = CARTESIAN_POINT('',(-102.,-22.,35.));
#963 = VECTOR('',#964,1.);
#964 = DIRECTION('',(0.,-2.2E-16,-1.));
#965 = ORIENTED_EDGE('',*,*,#966,.F.);
#966 = EDGE_CURVE('',#184,#959,#967,.T.);
#967 = LINE('',#968,#969);
#968 = CARTESIAN_POINT('',(-102.,-7.77E-15,-35.));
#969 = VECTOR('',#970,1.);
#970 = DIRECTION('',(0.,-1.,2.2E-16));
#971 = ORIENTED_EDGE('',*,*,#192,.F.);
#972 = PLANE('',#973);
#973 = AXIS2_PLACEMENT_3D('',#974,#975,#976);
#974 = CARTESIAN_POINT('',(-102.,7.77E-15,35.));
#975 = DIRECTION('',(1.,0.,0.));
#976 = DIRECTION('',(0.,-2.2E-16,-1.));
#977 = ADVANCED_FACE('',(#978),#996,.F.);
#978 = FACE_BOUND('',#979,.F.);
#979 = EDGE_LOOP('',(#980,#988,#989,#990));
#980 = ORIENTED_EDGE('',*,*,#981,.T.);
#981 = EDGE_CURVE('',#982,#934,#984,.T.);
#982 = VERTEX_POINT('',#983);
#983 = CARTESIAN_POINT('',(-100.,-22.,-37.));
#984 = LINE('',#985,#986);
#985 = CARTESIAN_POINT('',(-100.,-22.,-37.));
#986 = VECTOR('',#987,1.);
#987 = DIRECTION('',(1.,0.,0.));
#988 = ORIENTED_EDGE('',*,*,#943,.T.);
#989 = ORIENTED_EDGE('',*,*,#175,.F.);
#990 = ORIENTED_EDGE('',*,*,#991,.T.);
#991 = EDGE_CURVE('',#176,#982,#992,.T.);
#992 = LINE('',#993,#994);
#993 = CARTESIAN_POINT('',(-100.,-8.22E-15,-37.));
#994 = VECTOR('',#995,1.);
#995 = DIRECTION('',(0.,-1.,2.2E-16));
#996 = PLANE('',#997);
#997 = AXIS2_PLACEMENT_3D('',#998,#999,#1000);
#998 = CARTESIAN_POINT('',(-100.,-8.22E-15,-37.));
#999 = DIRECTION('',(0.,2.2E-16,1.));
#1000 = DIRECTION('',(1.,0.,0.));
#1001 = ADVANCED_FACE('',(#1002),#1014,.T.);
#1002 = FACE_BOUND('',#1003,.T.);
#1003 = EDGE_LOOP('',(#1004,#1005,#1012,#1013));
#1004 = ORIENTED_EDGE('',*,*,#991,.T.);
#1005 = ORIENTED_EDGE('',*,*,#1006,.F.);
#1006 = EDGE_CURVE('',#959,#982,#1007,.T.);
#1007 = CIRCLE('',#1008,2.);
#1008 = AXIS2_PLACEMENT_3D('',#1009,#1010,#1011);
#1009 = CARTESIAN_POINT('',(-100.,-22.,-35.));
#1010 = DIRECTION('',(0.,-1.,2.2E-16));
#1011 = DIRECTION('',(-1.1E-16,2.2E-16,1.));
#1012 = ORIENTED_EDGE('',*,*,#966,.F.);
#1013 = ORIENTED_EDGE('',*,*,#183,.T.);
#1014 = CYLINDRICAL_SURFACE('',#1015,2.);
#1015 = AXIS2_PLACEMENT_3D('',#1016,#1017,#1018);
#1016 = CARTESIAN_POINT('',(-100.,-7.77E-15,-35.));
#1017 = DIRECTION('',(0.,-1.,2.2E-16));
#1018 = DIRECTION('',(-1.1E-16,2.2E-16,1.));
#1019 = ADVANCED_FACE('',(#1020),#1039,.F.);
#1020 = FACE_BOUND('',#1021,.F.);
#1021 = EDGE_LOOP('',(#1022,#1031,#1037,#1038));
#1022 = ORIENTED_EDGE('',*,*,#1023,.F.);
#1023 = EDGE_CURVE('',#1024,#1024,#1026,.T.);
#1024 = VERTEX_POINT('',#1025);
#1025 = CARTESIAN_POINT('',(12.25,-22.,-52.));
#1026 = CIRCLE('',#1027,12.25);
#1027 = AXIS2_PLACEMENT_3D('',#1028,#1029,#1030);
#1028 = CARTESIAN_POINT('',(0.,-22.,-52.));
#1029 = DIRECTION('',(0.,-1.,0.));
#1030 = DIRECTION('',(1.,0.,0.));
#1031 = ORIENTED_EDGE('',*,*,#1032,.T.);
#1032 = EDGE_CURVE('',#1024,#283,#1033,.T.);
#1033 = LINE('',#1034,#1035);
#1034 = CARTESIAN_POINT('',(12.25,-22.,-52.));
#1035 = VECTOR('',#1036,1.);
#1036 = DIRECTION('',(0.,1.,-2.2E-16));
#1037 = ORIENTED_EDGE('',*,*,#282,.T.);
#1038 = ORIENTED_EDGE('',*,*,#1032,.F.);
#1039 = CYLINDRICAL_SURFACE('',#1040,12.25);
#1040 = AXIS2_PLACEMENT_3D('',#1041,#1042,#1043);
#1041 = CARTESIAN_POINT('',(0.,-22.,-52.));
#1042 = DIRECTION('',(0.,-1.,2.2E-16));
#1043 = DIRECTION('',(1.,0.,0.));
#1044 = ADVANCED_FACE('',(#1045),#1064,.F.);
#1045 = FACE_BOUND('',#1046,.F.);
#1046 = EDGE_LOOP('',(#1047,#1056,#1062,#1063));
#1047 = ORIENTED_EDGE('',*,*,#1048,.F.);
#1048 = EDGE_CURVE('',#1049,#1049,#1051,.T.);
#1049 = VERTEX_POINT('',#1050);
#1050 = CARTESIAN_POINT('',(12.25,-22.,52.));
#1051 = CIRCLE('',#1052,12.25);
#1052 = AXIS2_PLACEMENT_3D('',#1053,#1054,#1055);
#1053 = CARTESIAN_POINT('',(0.,-22.,52.));
#1054 = DIRECTION('',(0.,-1.,0.));
#1055 = DIRECTION('',(1.,0.,0.));
#1056 = ORIENTED_EDGE('',*,*,#1057,.T.);
#1057 = EDGE_CURVE('',#1049,#294,#1058,.T.);
#1058 = LINE('',#1059,#1060);
#1059 = CARTESIAN_POINT('',(12.25,-22.,52.));
#1060 = VECTOR('',#1061,1.);
#1061 = DIRECTION('',(0.,1.,-2.2E-16));
#1062 = ORIENTED_EDGE('',*,*,#293,.T.);
#1063 = ORIENTED_EDGE('',*,*,#1057,.F.);
#1064 = CYLINDRICAL_SURFACE('',#1065,12.25);
#1065 = AXIS2_PLACEMENT_3D('',#1066,#1067,#1068);
#1066 = CARTESIAN_POINT('',(0.,-22.,52.));
#1067 = DIRECTION('',(0.,-1.,2.2E-16));
#1068 = DIRECTION('',(1.,0.,0.));
#1069 = ADVANCED_FACE('',(#1070),#1095,.F.);
#1070 = FACE_BOUND('',#1071,.F.);
#1071 = EDGE_LOOP('',(#1072,#1080,#1088,#1094));
#1072 = ORIENTED_EDGE('',*,*,#1073,.T.);
#1073 = EDGE_CURVE('',#401,#1074,#1076,.T.);
#1074 = VERTEX_POINT('',#1075);
#1075 = CARTESIAN_POINT('',(25.,3.2,-27.5));
#1076 = LINE('',#1077,#1078);
#1077 = CARTESIAN_POINT('',(25.,-22.,-27.5));
#1078 = VECTOR('',#1079,1.);
#1079 = DIRECTION('',(0.,1.,-2.2E-16));
#1080 = ORIENTED_EDGE('',*,*,#1081,.T.);
#1081 = EDGE_CURVE('',#1074,#1082,#1084,.T.);
#1082 = VERTEX_POINT('',#1083);
#1083 = CARTESIAN_POINT('',(25.,3.2,-22.5));
#1084 = LINE('',#1085,#1086);
#1085 = CARTESIAN_POINT('',(25.,3.2,-27.5));
#1086 = VECTOR('',#1087,1.);
#1087 = DIRECTION('',(0.,0.,1.));
#1088 = ORIENTED_EDGE('',*,*,#1089,.F.);
#1089 = EDGE_CURVE('',#403,#1082,#1090,.T.);
#1090 = LINE('',#1091,#1092);
#1091 = CARTESIAN_POINT('',(25.,-22.,-22.5));
#1092 = VECTOR('',#1093,1.);
#1093 = DIRECTION('',(0.,1.,-2.2E-16));
#1094 = ORIENTED_EDGE('',*,*,#400,.F.);
#1095 = PLANE('',#1096);
#1096 = AXIS2_PLACEMENT_3D('',#1097,#1098,#1099);
#1097 = CARTESIAN_POINT('',(25.,-22.,-27.5));
#1098 = DIRECTION('',(1.,0.,0.));
#1099 = DIRECTION('',(0.,2.2E-16,1.));
#1100 = ADVANCED_FACE('',(#1101),#1119,.F.);
#1101 = FACE_BOUND('',#1102,.F.);
#1102 = EDGE_LOOP('',(#1103,#1104,#1112,#1118));
#1103 = ORIENTED_EDGE('',*,*,#1089,.T.);
#1104 = ORIENTED_EDGE('',*,*,#1105,.T.);
#1105 = EDGE_CURVE('',#1082,#1106,#1108,.T.);
#1106 = VERTEX_POINT('',#1107);
#1107 = CARTESIAN_POINT('',(30.,3.2,-22.5));
#1108 = LINE('',#1109,#1110);
#1109 = CARTESIAN_POINT('',(25.,3.2,-22.5));
#1110 = VECTOR('',#1111,1.);
#1111 = DIRECTION('',(1.,0.,0.));
#1112 = ORIENTED_EDGE('',*,*,#1113,.F.);
#1113 = EDGE_CURVE('',#419,#1106,#1114,.T.);
#1114 = LINE('',#1115,#1116);
#1115 = CARTESIAN_POINT('',(30.,-22.,-22.5));
#1116 = VECTOR('',#1117,1.);
#1117 = DIRECTION('',(0.,1.,-2.2E-16));
#1118 = ORIENTED_EDGE('',*,*,#426,.F.);
#1119 = PLANE('',#1120);
#1120 = AXIS2_PLACEMENT_3D('',#1121,#1122,#1123);
#1121 = CARTESIAN_POINT('',(25.,-22.,-22.5));
#1122 = DIRECTION('',(0.,-2.2E-16,-1.));
#1123 = DIRECTION('',(1.,0.,0.));
#1124 = ADVANCED_FACE('',(#1125),#1143,.F.);
#1125 = FACE_BOUND('',#1126,.F.);
#1126 = EDGE_LOOP('',(#1127,#1128,#1136,#1142));
#1127 = ORIENTED_EDGE('',*,*,#1113,.T.);
#1128 = ORIENTED_EDGE('',*,*,#1129,.T.);
#1129 = EDGE_CURVE('',#1106,#1130,#1132,.T.);
#1130 = VERTEX_POINT('',#1131);
#1131 = CARTESIAN_POINT('',(30.,3.2,-27.5));
#1132 = LINE('',#1133,#1134);
#1133 = CARTESIAN_POINT('',(30.,3.2,-22.5));
#1134 = VECTOR('',#1135,1.);
#1135 = DIRECTION('',(0.,0.,-1.));
#1136 = ORIENTED_EDGE('',*,*,#1137,.F.);
#1137 = EDGE_CURVE('',#411,#1130,#1138,.T.);
#1138 = LINE('',#1139,#1140);
#1139 = CARTESIAN_POINT('',(30.,-22.,-27.5));
#1140 = VECTOR('',#1141,1.);
#1141 = DIRECTION('',(0.,1.,-2.2E-16));
#1142 = ORIENTED_EDGE('',*,*,#418,.F.);
#1143 = PLANE('',#1144);
#1144 = AXIS2_PLACEMENT_3D('',#1145,#1146,#1147);
#1145 = CARTESIAN_POINT('',(30.,-22.,-22.5));
#1146 = DIRECTION('',(-1.,0.,0.));
#1147 = DIRECTION('',(0.,-2.2E-16,-1.));
#1148 = ADVANCED_FACE('',(#1149),#1160,.F.);
#1149 = FACE_BOUND('',#1150,.F.);
#1150 = EDGE_LOOP('',(#1151,#1152,#1158,#1159));
#1151 = ORIENTED_EDGE('',*,*,#1137,.T.);
#1152 = ORIENTED_EDGE('',*,*,#1153,.T.);
#1153 = EDGE_CURVE('',#1130,#1074,#1154,.T.);
#1154 = LINE('',#1155,#1156);
#1155 = CARTESIAN_POINT('',(30.,3.2,-27.5));
#1156 = VECTOR('',#1157,1.);
#1157 = DIRECTION('',(-1.,0.,0.));
#1158 = ORIENTED_EDGE('',*,*,#1073,.F.);
#1159 = ORIENTED_EDGE('',*,*,#410,.F.);
#1160 = PLANE('',#1161);
#1161 = AXIS2_PLACEMENT_3D('',#1162,#1163,#1164);
#1162 = CARTESIAN_POINT('',(30.,-22.,-27.5));
#1163 = DIRECTION('',(0.,2.2E-16,1.));
#1164 = DIRECTION('',(-1.,0.,0.));
#1165 = ADVANCED_FACE('',(#1166),#1191,.F.);
#1166 = FACE_BOUND('',#1167,.F.);
#1167 = EDGE_LOOP('',(#1168,#1176,#1184,#1190));
#1168 = ORIENTED_EDGE('',*,*,#1169,.T.);
#1169 = EDGE_CURVE('',#435,#1170,#1172,.T.);
#1170 = VERTEX_POINT('',#1171);
#1171 = CARTESIAN_POINT('',(25.,3.2,27.5));
#1172 = LINE('',#1173,#1174);
#1173 = CARTESIAN_POINT('',(25.,-22.,27.5));
#1174 = VECTOR('',#1175,1.);
#1175 = DIRECTION('',(0.,1.,-2.2E-16));
#1176 = ORIENTED_EDGE('',*,*,#1177,.T.);
#1177 = EDGE_CURVE('',#1170,#1178,#1180,.T.);
#1178 = VERTEX_POINT('',#1179);
#1179 = CARTESIAN_POINT('',(30.,3.2,27.5));
#1180 = LINE('',#1181,#1182);
#1181 = CARTESIAN_POINT('',(25.,3.2,27.5));
#1182 = VECTOR('',#1183,1.);
#1183 = DIRECTION('',(1.,0.,0.));
#1184 = ORIENTED_EDGE('',*,*,#1185,.F.);
#1185 = EDGE_CURVE('',#437,#1178,#1186,.T.);
#1186 = LINE('',#1187,#1188);
#1187 = CARTESIAN_POINT('',(30.,-22.,27.5));
#1188 = VECTOR('',#1189,1.);
#1189 = DIRECTION('',(0.,1.,-2.2E-16));
#1190 = ORIENTED_EDGE('',*,*,#434,.F.);
#1191 = PLANE('',#1192);
#1192 = AXIS2_PLACEMENT_3D('',#1193,#1194,#1195);
#1193 = CARTESIAN_POINT('',(25.,-22.,27.5));
#1194 = DIRECTION('',(0.,-2.2E-16,-1.));
#1195 = DIRECTION('',(1.,0.,0.));
#1196 = ADVANCED_FACE('',(#1197),#1215,.F.);
#1197 = FACE_BOUND('',#1198,.F.);
#1198 = EDGE_LOOP('',(#1199,#1200,#1208,#1214));
#1199 = ORIENTED_EDGE('',*,*,#1185,.T.);
#1200 = ORIENTED_EDGE('',*,*,#1201,.T.);
#1201 = EDGE_CURVE('',#1178,#1202,#1204,.T.);
#1202 = VERTEX_POINT('',#1203);
#1203 = CARTESIAN_POINT('',(30.,3.2,22.5));
#1204 = LINE('',#1205,#1206);
#1205 = CARTESIAN_POINT('',(30.,3.2,27.5));
#1206 = VECTOR('',#1207,1.);
#1207 = DIRECTION('',(0.,0.,-1.));
#1208 = ORIENTED_EDGE('',*,*,#1209,.F.);
#1209 = EDGE_CURVE('',#453,#1202,#1210,.T.);
#1210 = LINE('',#1211,#1212);
#1211 = CARTESIAN_POINT('',(30.,-22.,22.5));
#1212 = VECTOR('',#1213,1.);
#1213 = DIRECTION('',(0.,1.,-2.2E-16));
#1214 = ORIENTED_EDGE('',*,*,#460,.F.);
#1215 = PLANE('',#1216);
#1216 = AXIS2_PLACEMENT_3D('',#1217,#1218,#1219);
#1217 = CARTESIAN_POINT('',(30.,-22.,27.5));
#1218 = DIRECTION('',(-1.,0.,0.));
#1219 = DIRECTION('',(0.,-2.2E-16,-1.));
#1220 = ADVANCED_FACE('',(#1221),#1239,.F.);
#1221 = FACE_BOUND('',#1222,.F.);
#1222 = EDGE_LOOP('',(#1223,#1224,#1232,#1238));
#1223 = ORIENTED_EDGE('',*,*,#1209,.T.);
#1224 = ORIENTED_EDGE('',*,*,#1225,.T.);
#1225 = EDGE_CURVE('',#1202,#1226,#1228,.T.);
#1226 = VERTEX_POINT('',#1227);
#1227 = CARTESIAN_POINT('',(25.,3.2,22.5));
#1228 = LINE('',#1229,#1230);
#1229 = CARTESIAN_POINT('',(30.,3.2,22.5));
#1230 = VECTOR('',#1231,1.);
#1231 = DIRECTION('',(-1.,0.,0.));
#1232 = ORIENTED_EDGE('',*,*,#1233,.F.);
#1233 = EDGE_CURVE('',#445,#1226,#1234,.T.);
#1234 = LINE('',#1235,#1236);
#1235 = CARTESIAN_POINT('',(25.,-22.,22.5));
#1236 = VECTOR('',#1237,1.);
#1237 = DIRECTION('',(0.,1.,-2.2E-16));
#1238 = ORIENTED_EDGE('',*,*,#452,.F.);
#1239 = PLANE('',#1240);
#1240 = AXIS2_PLACEMENT_3D('',#1241,#1242,#1243);
#1241 = CARTESIAN_POINT('',(30.,-22.,22.5));
#1242 = DIRECTION('',(0.,2.2E-16,1.));
#1243 = DIRECTION('',(-1.,0.,0.));
#1244 = ADVANCED_FACE('',(#1245),#1256,.F.);
#1245 = FACE_BOUND('',#1246,.F.);
#1246 = EDGE_LOOP('',(#1247,#1248,#1254,#1255));
#1247 = ORIENTED_EDGE('',*,*,#1233,.T.);
#1248 = ORIENTED_EDGE('',*,*,#1249,.T.);
#1249 = EDGE_CURVE('',#1226,#1170,#1250,.T.);
#1250 = LINE('',#1251,#1252);
#1251 = CARTESIAN_POINT('',(25.,3.2,22.5));
#1252 = VECTOR('',#1253,1.);
#1253 = DIRECTION('',(0.,0.,1.));
#1254 = ORIENTED_EDGE('',*,*,#1169,.F.);
#1255 = ORIENTED_EDGE('',*,*,#444,.F.);
#1256 = PLANE('',#1257);
#1257 = AXIS2_PLACEMENT_3D('',#1258,#1259,#1260);
#1258 = CARTESIAN_POINT('',(25.,-22.,22.5));
#1259 = DIRECTION('',(1.,0.,0.));
#1260 = DIRECTION('',(0.,2.2E-16,1.));
#1261 = ADVANCED_FACE('',(#1262),#1268,.F.);
#1262 = FACE_BOUND('',#1263,.F.);
#1263 = EDGE_LOOP('',(#1264,#1265,#1266,#1267));
#1264 = ORIENTED_EDGE('',*,*,#620,.F.);
#1265 = ORIENTED_EDGE('',*,*,#588,.T.);
#1266 = ORIENTED_EDGE('',*,*,#556,.T.);
#1267 = ORIENTED_EDGE('',*,*,#675,.F.);
#1268 = PLANE('',#1269);
#1269 = AXIS2_PLACEMENT_3D('',#1270,#1271,#1272);
#1270 = CARTESIAN_POINT('',(102.,-3.6,0.));
#1271 = DIRECTION('',(0.,-1.,0.));
#1272 = DIRECTION('',(0.,0.,-1.));
#1273 = ADVANCED_FACE('',(#1274),#1301,.T.);
#1274 = FACE_BOUND('',#1275,.F.);
#1275 = EDGE_LOOP('',(#1276,#1277,#1286,#1294));
#1276 = ORIENTED_EDGE('',*,*,#602,.F.);
#1277 = ORIENTED_EDGE('',*,*,#1278,.T.);
#1278 = EDGE_CURVE('',#603,#1279,#1281,.T.);
#1279 = VERTEX_POINT('',#1280);
#1280 = CARTESIAN_POINT('',(100.,-24.,-35.));
#1281 = CIRCLE('',#1282,2.);
#1282 = AXIS2_PLACEMENT_3D('',#1283,#1284,#1285);
#1283 = CARTESIAN_POINT('',(100.,-22.,-35.));
#1284 = DIRECTION('',(2.2E-16,0.,-1.));
#1285 = DIRECTION('',(1.1E-16,1.,2.42E-32));
#1286 = ORIENTED_EDGE('',*,*,#1287,.T.);
#1287 = EDGE_CURVE('',#1279,#1288,#1290,.T.);
#1288 = VERTEX_POINT('',#1289);
#1289 = CARTESIAN_POINT('',(100.,-24.,35.));
#1290 = LINE('',#1291,#1292);
#1291 = CARTESIAN_POINT('',(100.,-24.,-35.));
#1292 = VECTOR('',#1293,1.);
#1293 = DIRECTION('',(0.,0.,1.));
#1294 = ORIENTED_EDGE('',*,*,#1295,.F.);
#1295 = EDGE_CURVE('',#605,#1288,#1296,.T.);
#1296 = CIRCLE('',#1297,2.);
#1297 = AXIS2_PLACEMENT_3D('',#1298,#1299,#1300);
#1298 = CARTESIAN_POINT('',(100.,-22.,35.));
#1299 = DIRECTION('',(2.2E-16,0.,-1.));
#1300 = DIRECTION('',(1.1E-16,1.,2.42E-32));
#1301 = CYLINDRICAL_SURFACE('',#1302,2.);
#1302 = AXIS2_PLACEMENT_3D('',#1303,#1304,#1305);
#1303 = CARTESIAN_POINT('',(100.,-22.,-35.));
#1304 = DIRECTION('',(-2.2E-16,0.,1.));
#1305 = DIRECTION('',(1.1E-16,1.,2.42E-32));
#1306 = ADVANCED_FACE('',(#1307),#1318,.T.);
#1307 = FACE_BOUND('',#1308,.T.);
#1308 = EDGE_LOOP('',(#1309,#1310,#1317));
#1309 = ORIENTED_EDGE('',*,*,#657,.T.);
#1310 = ORIENTED_EDGE('',*,*,#1311,.T.);
#1311 = EDGE_CURVE('',#650,#1288,#1312,.T.);
#1312 = CIRCLE('',#1313,2.);
#1313 = AXIS2_PLACEMENT_3D('',#1314,#1315,#1316);
#1314 = CARTESIAN_POINT('',(100.,-22.,35.));
#1315 = DIRECTION('',(1.,0.,-0.));
#1316 = DIRECTION('',(0.,1.,1.1E-16));
#1317 = ORIENTED_EDGE('',*,*,#1295,.F.);
#1318 = SPHERICAL_SURFACE('',#1319,2.);
#1319 = AXIS2_PLACEMENT_3D('',#1320,#1321,#1322);
#1320 = CARTESIAN_POINT('',(100.,-22.,35.));
#1321 = DIRECTION('',(2.51E-15,0.707106781187,0.707106781187));
#1322 = DIRECTION('',(-0.57735026919,0.57735026919,-0.57735026919));
#1323 = ADVANCED_FACE('',(#1324),#1350,.T.);
#1324 = FACE_BOUND('',#1325,.F.);
#1325 = EDGE_LOOP('',(#1326,#1327,#1328,#1336,#1343,#1344));
#1326 = ORIENTED_EDGE('',*,*,#693,.F.);
#1327 = ORIENTED_EDGE('',*,*,#1311,.T.);
#1328 = ORIENTED_EDGE('',*,*,#1329,.T.);
#1329 = EDGE_CURVE('',#1288,#1330,#1332,.T.);
#1330 = VERTEX_POINT('',#1331);
#1331 = CARTESIAN_POINT('',(-100.,-24.,35.));
#1332 = LINE('',#1333,#1334);
#1333 = CARTESIAN_POINT('',(100.,-24.,35.));
#1334 = VECTOR('',#1335,1.);
#1335 = DIRECTION('',(-1.,0.,0.));
#1336 = ORIENTED_EDGE('',*,*,#1337,.F.);
#1337 = EDGE_CURVE('',#863,#1330,#1338,.T.);
#1338 = CIRCLE('',#1339,2.);
#1339 = AXIS2_PLACEMENT_3D('',#1340,#1341,#1342);
#1340 = CARTESIAN_POINT('',(-100.,-22.,35.));
#1341 = DIRECTION('',(1.,0.,-0.));
#1342 = DIRECTION('',(0.,1.,1.1E-16));
#1343 = ORIENTED_EDGE('',*,*,#862,.F.);
#1344 = ORIENTED_EDGE('',*,*,#1345,.F.);
#1345 = EDGE_CURVE('',#694,#815,#1346,.T.);
#1346 = LINE('',#1347,#1348);
#1347 = CARTESIAN_POINT('',(100.,-22.,37.));
#1348 = VECTOR('',#1349,1.);
#1349 = DIRECTION('',(-1.,0.,0.));
#1350 = CYLINDRICAL_SURFACE('',#1351,2.);
#1351 = AXIS2_PLACEMENT_3D('',#1352,#1353,#1354);
#1352 = CARTESIAN_POINT('',(100.,-22.,35.));
#1353 = DIRECTION('',(-1.,0.,0.));
#1354 = DIRECTION('',(0.,1.,1.1E-16));
#1355 = ADVANCED_FACE('',(#1356,#1362),#1365,.F.);
#1356 = FACE_BOUND('',#1357,.F.);
#1357 = EDGE_LOOP('',(#1358,#1359,#1360,#1361));
#1358 = ORIENTED_EDGE('',*,*,#814,.T.);
#1359 = ORIENTED_EDGE('',*,*,#772,.T.);
#1360 = ORIENTED_EDGE('',*,*,#715,.F.);
#1361 = ORIENTED_EDGE('',*,*,#1345,.T.);
#1362 = FACE_BOUND('',#1363,.F.);
#1363 = EDGE_LOOP('',(#1364));
#1364 = ORIENTED_EDGE('',*,*,#1048,.T.);
#1365 = PLANE('',#1366);
#1366 = AXIS2_PLACEMENT_3D('',#1367,#1368,#1369);
#1367 = CARTESIAN_POINT('',(-20.,-22.,37.));
#1368 = DIRECTION('',(0.,1.,0.));
#1369 = DIRECTION('',(1.,0.,0.));
#1370 = ADVANCED_FACE('',(#1371),#1382,.T.);
#1371 = FACE_BOUND('',#1372,.T.);
#1372 = EDGE_LOOP('',(#1373,#1374,#1375));
#1373 = ORIENTED_EDGE('',*,*,#740,.T.);
#1374 = ORIENTED_EDGE('',*,*,#1278,.T.);
#1375 = ORIENTED_EDGE('',*,*,#1376,.F.);
#1376 = EDGE_CURVE('',#741,#1279,#1377,.T.);
#1377 = CIRCLE('',#1378,2.);
#1378 = AXIS2_PLACEMENT_3D('',#1379,#1380,#1381);
#1379 = CARTESIAN_POINT('',(100.,-22.,-35.));
#1380 = DIRECTION('',(-1.,0.,-0.));
#1381 = DIRECTION('',(0.,1.,-1.1E-16));
#1382 = SPHERICAL_SURFACE('',#1383,2.);
#1383 = AXIS2_PLACEMENT_3D('',#1384,#1385,#1386);
#1384 = CARTESIAN_POINT('',(100.,-22.,-35.));
#1385 = DIRECTION('',(0.707106781187,0.707106781187,0.));
#1386 = DIRECTION('',(-0.57735026919,0.57735026919,0.57735026919));
#1387 = ADVANCED_FACE('',(#1388),#1414,.T.);
#1388 = FACE_BOUND('',#1389,.F.);
#1389 = EDGE_LOOP('',(#1390,#1391,#1400,#1406,#1407,#1408));
#1390 = ORIENTED_EDGE('',*,*,#981,.F.);
#1391 = ORIENTED_EDGE('',*,*,#1392,.T.);
#1392 = EDGE_CURVE('',#982,#1393,#1395,.T.);
#1393 = VERTEX_POINT('',#1394);
#1394 = CARTESIAN_POINT('',(-100.,-24.,-35.));
#1395 = CIRCLE('',#1396,2.);
#1396 = AXIS2_PLACEMENT_3D('',#1397,#1398,#1399);
#1397 = CARTESIAN_POINT('',(-100.,-22.,-35.));
#1398 = DIRECTION('',(-1.,0.,-0.));
#1399 = DIRECTION('',(0.,1.,-1.1E-16));
#1400 = ORIENTED_EDGE('',*,*,#1401,.T.);
#1401 = EDGE_CURVE('',#1393,#1279,#1402,.T.);
#1402 = LINE('',#1403,#1404);
#1403 = CARTESIAN_POINT('',(-100.,-24.,-35.));
#1404 = VECTOR('',#1405,1.);
#1405 = DIRECTION('',(1.,0.,0.));
#1406 = ORIENTED_EDGE('',*,*,#1376,.F.);
#1407 = ORIENTED_EDGE('',*,*,#788,.F.);
#1408 = ORIENTED_EDGE('',*,*,#1409,.F.);
#1409 = EDGE_CURVE('',#934,#789,#1410,.T.);
#1410 = LINE('',#1411,#1412);
#1411 = CARTESIAN_POINT('',(-100.,-22.,-37.));
#1412 = VECTOR('',#1413,1.);
#1413 = DIRECTION('',(1.,0.,0.));
#1414 = CYLINDRICAL_SURFACE('',#1415,2.);
#1415 = AXIS2_PLACEMENT_3D('',#1416,#1417,#1418);
#1416 = CARTESIAN_POINT('',(-100.,-22.,-35.));
#1417 = DIRECTION('',(1.,0.,0.));
#1418 = DIRECTION('',(0.,1.,-1.1E-16));
#1419 = ADVANCED_FACE('',(#1420,#1426),#1429,.F.);
#1420 = FACE_BOUND('',#1421,.F.);
#1421 = EDGE_LOOP('',(#1422,#1423,#1424,#1425));
#1422 = ORIENTED_EDGE('',*,*,#845,.T.);
#1423 = ORIENTED_EDGE('',*,*,#894,.T.);
#1424 = ORIENTED_EDGE('',*,*,#933,.F.);
#1425 = ORIENTED_EDGE('',*,*,#1409,.T.);
#1426 = FACE_BOUND('',#1427,.F.);
#1427 = EDGE_LOOP('',(#1428));
#1428 = ORIENTED_EDGE('',*,*,#1023,.T.);
#1429 = PLANE('',#1430);
#1430 = AXIS2_PLACEMENT_3D('',#1431,#1432,#1433);
#1431 = CARTESIAN_POINT('',(20.,-22.,-37.));
#1432 = DIRECTION('',(0.,1.,0.));
#1433 = DIRECTION('',(-1.,0.,0.));
#1434 = ADVANCED_FACE('',(#1435),#1446,.T.);
#1435 = FACE_BOUND('',#1436,.T.);
#1436 = EDGE_LOOP('',(#1437,#1438,#1445));
#1437 = ORIENTED_EDGE('',*,*,#909,.F.);
#1438 = ORIENTED_EDGE('',*,*,#1439,.T.);
#1439 = EDGE_CURVE('',#910,#1330,#1440,.T.);
#1440 = CIRCLE('',#1441,2.);
#1441 = AXIS2_PLACEMENT_3D('',#1442,#1443,#1444);
#1442 = CARTESIAN_POINT('',(-100.,-22.,35.));
#1443 = DIRECTION('',(2.2E-16,0.,1.));
#1444 = DIRECTION('',(-1.1E-16,1.,2.42E-32));
#1445 = ORIENTED_EDGE('',*,*,#1337,.F.);
#1446 = SPHERICAL_SURFACE('',#1447,2.);
#1447 = AXIS2_PLACEMENT_3D('',#1448,#1449,#1450);
#1448 = CARTESIAN_POINT('',(-100.,-22.,35.));
#1449 = DIRECTION('',(-0.,-0.707106781187,-0.707106781187));
#1450 = DIRECTION('',(0.57735026919,0.57735026919,-0.57735026919));
#1451 = ADVANCED_FACE('',(#1452),#1469,.T.);
#1452 = FACE_BOUND('',#1453,.F.);
#1453 = EDGE_LOOP('',(#1454,#1455,#1456,#1462));
#1454 = ORIENTED_EDGE('',*,*,#958,.F.);
#1455 = ORIENTED_EDGE('',*,*,#1439,.T.);
#1456 = ORIENTED_EDGE('',*,*,#1457,.T.);
#1457 = EDGE_CURVE('',#1330,#1393,#1458,.T.);
#1458 = LINE('',#1459,#1460);
#1459 = CARTESIAN_POINT('',(-100.,-24.,35.));
#1460 = VECTOR('',#1461,1.);
#1461 = DIRECTION('',(0.,0.,-1.));
#1462 = ORIENTED_EDGE('',*,*,#1463,.F.);
#1463 = EDGE_CURVE('',#959,#1393,#1464,.T.);
#1464 = CIRCLE('',#1465,2.);
#1465 = AXIS2_PLACEMENT_3D('',#1466,#1467,#1468);
#1466 = CARTESIAN_POINT('',(-100.,-22.,-35.));
#1467 = DIRECTION('',(2.2E-16,0.,1.));
#1468 = DIRECTION('',(-1.1E-16,1.,2.42E-32));
#1469 = CYLINDRICAL_SURFACE('',#1470,2.);
#1470 = AXIS2_PLACEMENT_3D('',#1471,#1472,#1473);
#1471 = CARTESIAN_POINT('',(-100.,-22.,35.));
#1472 = DIRECTION('',(-2.2E-16,-0.,-1.));
#1473 = DIRECTION('',(-1.1E-16,1.,2.42E-32));
#1474 = ADVANCED_FACE('',(#1475),#1480,.T.);
#1475 = FACE_BOUND('',#1476,.T.);
#1476 = EDGE_LOOP('',(#1477,#1478,#1479));
#1477 = ORIENTED_EDGE('',*,*,#1006,.T.);
#1478 = ORIENTED_EDGE('',*,*,#1392,.T.);
#1479 = ORIENTED_EDGE('',*,*,#1463,.F.);
#1480 = SPHERICAL_SURFACE('',#1481,2.);
#1481 = AXIS2_PLACEMENT_3D('',#1482,#1483,#1484);
#1482 = CARTESIAN_POINT('',(-100.,-22.,-35.));
#1483 = DIRECTION('',(2.51E-15,0.707106781187,-0.707106781187));
#1484 = DIRECTION('',(0.57735026919,0.57735026919,0.57735026919));
#1485 = ADVANCED_FACE('',(#1486),#1492,.T.);
#1486 = FACE_BOUND('',#1487,.T.);
#1487 = EDGE_LOOP('',(#1488,#1489,#1490,#1491));
#1488 = ORIENTED_EDGE('',*,*,#1081,.T.);
#1489 = ORIENTED_EDGE('',*,*,#1105,.T.);
#1490 = ORIENTED_EDGE('',*,*,#1129,.T.);
#1491 = ORIENTED_EDGE('',*,*,#1153,.T.);
#1492 = PLANE('',#1493);
#1493 = AXIS2_PLACEMENT_3D('',#1494,#1495,#1496);
#1494 = CARTESIAN_POINT('',(27.5,3.2,-1.03E-15));
#1495 = DIRECTION('',(0.,1.,0.));
#1496 = DIRECTION('',(0.,0.,1.));
#1497 = ADVANCED_FACE('',(#1498),#1504,.T.);
#1498 = FACE_BOUND('',#1499,.T.);
#1499 = EDGE_LOOP('',(#1500,#1501,#1502,#1503));
#1500 = ORIENTED_EDGE('',*,*,#1177,.T.);
#1501 = ORIENTED_EDGE('',*,*,#1201,.T.);
#1502 = ORIENTED_EDGE('',*,*,#1225,.T.);
#1503 = ORIENTED_EDGE('',*,*,#1249,.T.);
#1504 = PLANE('',#1505);
#1505 = AXIS2_PLACEMENT_3D('',#1506,#1507,#1508);
#1506 = CARTESIAN_POINT('',(27.5,3.2,-1.03E-15));
#1507 = DIRECTION('',(0.,1.,0.));
#1508 = DIRECTION('',(0.,0.,1.));
#1509 = ADVANCED_FACE('',(#1510),#1516,.F.);
#1510 = FACE_BOUND('',#1511,.T.);
#1511 = EDGE_LOOP('',(#1512,#1513,#1514,#1515));
#1512 = ORIENTED_EDGE('',*,*,#1457,.T.);
#1513 = ORIENTED_EDGE('',*,*,#1401,.T.);
#1514 = ORIENTED_EDGE('',*,*,#1287,.T.);
#1515 = ORIENTED_EDGE('',*,*,#1329,.T.);
#1516 = PLANE('',#1517);
#1517 = AXIS2_PLACEMENT_3D('',#1518,#1519,#1520);
#1518 = CARTESIAN_POINT('',(0.,-24.,5.E-15));
#1519 = DIRECTION('',(0.,1.,0.));
#1520 = DIRECTION('',(0.,0.,1.));
#1521 = ( GEOMETRIC_REPRESENTATION_CONTEXT(3) 
GLOBAL_UNCERTAINTY_ASSIGNED_CONTEXT((#1525)) 
GLOBAL_UNIT_ASSIGNED_CONTEXT((#1522,#1523,#1524)) REPRESENTATION_CONTEXT
('Context #1','3D Context with UNIT and UNCERTAINTY') );
#1522 = ( LENGTH_UNIT() NAMED_UNIT(*) SI_UNIT(.MILLI.,.METRE.) );
#1523 = ( NAMED_UNIT(*) PLANE_ANGLE_UNIT() SI_UNIT($,.RADIAN.) );
#1524 = ( NAMED_UNIT(*) SI_UNIT($,.STERADIAN.) SOLID_ANGLE_UNIT() );
#1525 = UNCERTAINTY_MEASURE_WITH_UNIT(LENGTH_MEASURE(5.E-07),#1522,
  'distance_accuracy_value','confusion accuracy');
#1526 = PRODUCT_RELATED_PRODUCT_CATEGORY('part',$,(#7));
#1527 = MECHANICAL_DESIGN_GEOMETRIC_PRESENTATION_REPRESENTATION('',(
    #1528),#1521);
#1528 = STYLED_ITEM('color',(#1529),#15);
#1529 = PRESENTATION_STYLE_ASSIGNMENT((#1530,#1536));
#1530 = SURFACE_STYLE_USAGE(.BOTH.,#1531);
#1531 = SURFACE_SIDE_STYLE('',(#1532));
#1532 = SURFACE_STYLE_FILL_AREA(#1533);
#1533 = FILL_AREA_STYLE('',(#1534));
#1534 = FILL_AREA_STYLE_COLOUR('',#1535);
#1535 = COLOUR_RGB('',0.447058818107,0.474509808674,0.501960817233);
#1536 = CURVE_STYLE('',#1537,POSITIVE_LENGTH_MEASURE(0.1),#1538);
#1537 = DRAUGHTING_PRE_DEFINED_CURVE_FONT('continuous');
#1538 = COLOUR_RGB('',9.803921802644E-02,9.803921802644E-02,
  9.803921802644E-02);
ENDSEC;
END-ISO-10303-21;
